<svg class="decor-03" xmlns="http://www.w3.org/2000/svg" xmlns:xlink="http://www.w3.org/1999/xlink" width="800.338" height="498" viewBox="0 0 800.338 498">
  <defs>
    <clipPath id="clip-path">
      <rect id="Rectangle_159" data-name="Rectangle 159" width="800.337" height="497.749" transform="translate(57.43 49.732)" fill="#f2f2f2"/>
    </clipPath>
    <clipPath id="clip-path-2">
      <rect id="Rectangle_144" data-name="Rectangle 144" width="522.098" height="580.899" fill="#f2f2f2"/>
    </clipPath>
    <clipPath id="clip-path-3">
      <path id="Path_502" data-name="Path 502" d="M358.839,580.9c101.536-90.977,164.546-220.914,163.239-364.676A474.239,474.239,0,0,0,467.847,0H0V580.9Z" fill="#f2f2f2"/>
    </clipPath>
    <clipPath id="clip-path-4">
      <rect id="Rectangle_146" data-name="Rectangle 146" width="280.067" height="472.576" fill="#f2f2f2"/>
    </clipPath>
    <clipPath id="clip-path-5">
      <path id="Path_503" data-name="Path 503" d="M143.471,0H0V472.017q9.972.636,20.136.547c144.808-1.32,261.182-115.022,259.921-253.979C279.2,124.107,224.147,42.277,143.471,0" fill="#f2f2f2"/>
    </clipPath>
    <clipPath id="clip-path-6">
      <rect id="Rectangle_148" data-name="Rectangle 148" width="414.546" height="580.899" fill="#f2f2f2"/>
    </clipPath>
    <clipPath id="clip-path-7">
      <path id="Path_504" data-name="Path 504" d="M272.621,580.9c88.94-89.5,143.117-210.985,141.9-344.385A474.788,474.788,0,0,0,349.061,0H0V580.9Z" fill="#f2f2f2"/>
    </clipPath>
    <clipPath id="clip-path-8">
      <rect id="Rectangle_150" data-name="Rectangle 150" width="172.515" height="472.957" transform="translate(0 4.715)" fill="#f2f2f2"/>
    </clipPath>
    <clipPath id="clip-path-9">
      <path id="Path_505" data-name="Path 505" d="M0,4.715V477.672c101.443-35.505,173.5-129.3,172.505-238.8C171.521,130.951,99.836,39.518,0,4.715" fill="#f2f2f2"/>
    </clipPath>
    <clipPath id="clip-path-10">
      <rect id="Rectangle_152" data-name="Rectangle 152" width="717.358" height="580.899" fill="#f2f2f2"/>
    </clipPath>
    <clipPath id="clip-path-11">
      <path id="Path_506" data-name="Path 506" d="M686.892,580.9a473.924,473.924,0,0,0,30.446-171.826C715.777,237.28,622.7,86.879,482.93,0H0V580.9Z" fill="#f2f2f2"/>
    </clipPath>
    <clipPath id="clip-path-12">
      <rect id="Rectangle_154" data-name="Rectangle 154" width="475.326" height="418.668" transform="translate(0 162.231)" fill="#f2f2f2"/>
    </clipPath>
    <clipPath id="clip-path-13">
      <path id="Path_507" data-name="Path 507" d="M409.027,580.9c41.739-45.026,66.879-104.482,66.289-169.465-1.265-138.928-119.682-250.542-264.5-249.191C123.838,163.036,47.133,204.384,0,267.378V560.593A254.812,254.812,0,0,0,16.967,580.9Z" fill="#f2f2f2"/>
    </clipPath>
    <clipPath id="clip-path-14">
      <rect id="Rectangle_156" data-name="Rectangle 156" width="852.352" height="558.016" fill="#f2f2f2"/>
    </clipPath>
    <clipPath id="clip-path-15">
      <path id="Path_508" data-name="Path 508" d="M847.888,0H0V435.568c91.542,77.227,211.929,123.62,343.458,122.425C626.976,555.418,854.8,332.809,852.332,60.739A477.4,477.4,0,0,0,847.888,0" fill="#f2f2f2"/>
    </clipPath>
    <clipPath id="clip-path-16">
      <rect id="Rectangle_158" data-name="Rectangle 158" width="524.443" height="317.091" transform="translate(85.878)" fill="#f2f2f2"/>
    </clipPath>
    <clipPath id="clip-path-17">
      <path id="Path_509" data-name="Path 509" d="M94.911,0a242.191,242.191,0,0,0-9.023,67.859C87.154,206.816,205.579,318.4,350.391,317.08S611.572,202.057,610.311,63.1A242.387,242.387,0,0,0,601.394,0Z" fill="#f2f2f2"/>
    </clipPath>
    <linearGradient id="linear-gradient" x1="0.5" x2="0.5" y2="1" gradientUnits="objectBoundingBox">
      <stop offset="0" stop-color="#fff"/>
      <stop offset="0.498" stop-color="#fff" stop-opacity="0"/>
      <stop offset="1" stop-color="#fff"/>
    </linearGradient>
    <linearGradient id="linear-gradient-2" x1="0" y1="0.48" x2="0.993" y2="0.488" xlink:href="#linear-gradient"/>
  </defs>
  <g id="Group_1175" data-name="Group 1175" transform="translate(-3.831 -7125.256)">
    <g id="Group_1173" data-name="Group 1173">
      <g id="Group_1172" data-name="Group 1172" transform="translate(-643.041 3209.256)">
        <g id="Group_380" data-name="Group 380" transform="translate(589.443 3866.268)">
          <g id="Group_379" data-name="Group 379" clip-path="url(#clip-path)">
            <g id="Group_343" data-name="Group 343" style="mix-blend-mode: screen;isolation: isolate">
              <g id="Group_342" data-name="Group 342">
                <g id="Group_341" data-name="Group 341" clip-path="url(#clip-path-2)">
                  <g id="Group_340" data-name="Group 340">
                    <g id="Group_339" data-name="Group 339" clip-path="url(#clip-path-3)">
                      <rect id="Rectangle_143" data-name="Rectangle 143" width="528.638" height="585.599" transform="translate(-5.258 0.047) rotate(-0.517)" fill="#f2f2f2"/>
                    </g>
                  </g>
                </g>
              </g>
            </g>
            <g id="Group_348" data-name="Group 348" style="mix-blend-mode: color-dodge;isolation: isolate">
              <g id="Group_347" data-name="Group 347">
                <g id="Group_346" data-name="Group 346" clip-path="url(#clip-path-4)">
                  <g id="Group_345" data-name="Group 345">
                    <g id="Group_344" data-name="Group 344" clip-path="url(#clip-path-5)">
                      <rect id="Rectangle_145" data-name="Rectangle 145" width="285.598" height="475.146" transform="translate(-4.278 0.039) rotate(-0.517)" fill="#f2f2f2"/>
                    </g>
                  </g>
                </g>
              </g>
            </g>
            <g id="Group_353" data-name="Group 353" style="mix-blend-mode: screen;isolation: isolate">
              <g id="Group_352" data-name="Group 352">
                <g id="Group_351" data-name="Group 351" clip-path="url(#clip-path-6)">
                  <g id="Group_350" data-name="Group 350">
                    <g id="Group_349" data-name="Group 349" clip-path="url(#clip-path-7)">
                      <rect id="Rectangle_147" data-name="Rectangle 147" width="420.995" height="584.628" transform="translate(-5.258 0.047) rotate(-0.517)" fill="#f2f2f2"/>
                    </g>
                  </g>
                </g>
              </g>
            </g>
            <g id="Group_358" data-name="Group 358" style="mix-blend-mode: color-dodge;isolation: isolate">
              <g id="Group_357" data-name="Group 357">
                <g id="Group_356" data-name="Group 356" clip-path="url(#clip-path-8)">
                  <g id="Group_355" data-name="Group 355">
                    <g id="Group_354" data-name="Group 354" clip-path="url(#clip-path-9)">
                      <rect id="Rectangle_149" data-name="Rectangle 149" width="177.785" height="474.504" transform="translate(-4.281 4.754) rotate(-0.517)" fill="#f2f2f2"/>
                    </g>
                  </g>
                </g>
              </g>
            </g>
            <g id="Group_363" data-name="Group 363" style="mix-blend-mode: screen;isolation: isolate">
              <g id="Group_362" data-name="Group 362">
                <g id="Group_361" data-name="Group 361" clip-path="url(#clip-path-10)">
                  <g id="Group_360" data-name="Group 360">
                    <g id="Group_359" data-name="Group 359" clip-path="url(#clip-path-11)">
                      <rect id="Rectangle_151" data-name="Rectangle 151" width="723.131" height="587.355" transform="translate(-5.258 0.048) rotate(-0.517)" fill="#f2f2f2"/>
                    </g>
                  </g>
                </g>
              </g>
            </g>
            <g id="Group_368" data-name="Group 368" style="mix-blend-mode: color-dodge;isolation: isolate">
              <g id="Group_367" data-name="Group 367">
                <g id="Group_366" data-name="Group 366" clip-path="url(#clip-path-12)">
                  <g id="Group_365" data-name="Group 365">
                    <g id="Group_364" data-name="Group 364" clip-path="url(#clip-path-13)">
                      <rect id="Rectangle_153" data-name="Rectangle 153" width="479.7" height="424.285" transform="translate(-3.802 160.926) rotate(-0.517)" fill="#f2f2f2"/>
                    </g>
                  </g>
                </g>
              </g>
            </g>
            <g id="Group_373" data-name="Group 373" style="mix-blend-mode: screen;isolation: isolate">
              <g id="Group_372" data-name="Group 372">
                <g id="Group_371" data-name="Group 371" clip-path="url(#clip-path-14)">
                  <g id="Group_370" data-name="Group 370">
                    <g id="Group_369" data-name="Group 369" clip-path="url(#clip-path-15)">
                      <rect id="Rectangle_155" data-name="Rectangle 155" width="859.847" height="566.88" transform="translate(-5.062 0.046) rotate(-0.517)" fill="#f2f2f2"/>
                    </g>
                  </g>
                </g>
              </g>
            </g>
            <g id="Group_378" data-name="Group 378" style="mix-blend-mode: color-dodge;isolation: isolate">
              <g id="Group_377" data-name="Group 377">
                <g id="Group_376" data-name="Group 376" clip-path="url(#clip-path-16)">
                  <g id="Group_375" data-name="Group 375">
                    <g id="Group_374" data-name="Group 374" clip-path="url(#clip-path-17)">
                      <rect id="Rectangle_157" data-name="Rectangle 157" width="528.766" height="323.135" transform="translate(82.793 0.026) rotate(-0.517)" fill="#f2f2f2"/>
                    </g>
                  </g>
                </g>
              </g>
            </g>
          </g>
        </g>
        <path id="Path_510" data-name="Path 510" d="M845.837,539.44v8.041h11.93V532.553Z" transform="translate(589.443 3866.268)" fill="#f2f2f2"/>
        <path id="Path_511" data-name="Path 511" d="M806.217,539.44v8.041h35.658V539.44l-17.829-10.293Z" transform="translate(589.443 3866.268)" fill="#f2f2f2"/>
        <path id="Path_512" data-name="Path 512" d="M766.6,539.44v8.041h35.657V539.44l-17.829-10.293Z" transform="translate(589.443 3866.268)" fill="#f2f2f2"/>
        <path id="Path_513" data-name="Path 513" d="M726.979,539.44v8.041h35.658V539.44l-17.829-10.293Z" transform="translate(589.443 3866.268)" fill="#f2f2f2"/>
        <path id="Path_514" data-name="Path 514" d="M687.36,539.44v8.041h35.657V539.44l-17.829-10.293Z" transform="translate(589.443 3866.268)" fill="#f2f2f2"/>
        <path id="Path_515" data-name="Path 515" d="M647.74,539.44v8.041H683.4V539.44l-17.828-10.293Z" transform="translate(589.443 3866.268)" fill="#f2f2f2"/>
        <path id="Path_516" data-name="Path 516" d="M608.121,539.44v8.041h35.657V539.44l-17.829-10.293Z" transform="translate(589.443 3866.268)" fill="#f2f2f2"/>
        <path id="Path_517" data-name="Path 517" d="M568.5,539.44v8.041h35.657V539.44L586.33,529.147Z" transform="translate(589.443 3866.268)" fill="#f2f2f2"/>
        <path id="Path_518" data-name="Path 518" d="M528.882,539.44v8.041h35.657V539.44L546.71,529.147Z" transform="translate(589.443 3866.268)" fill="#f2f2f2"/>
        <path id="Path_519" data-name="Path 519" d="M489.263,539.44v8.041h35.657V539.44l-17.828-10.293Z" transform="translate(589.443 3866.268)" fill="#f2f2f2"/>
        <path id="Path_520" data-name="Path 520" d="M449.643,539.44v8.041H485.3V539.44l-17.829-10.293Z" transform="translate(589.443 3866.268)" fill="#f2f2f2"/>
        <path id="Path_521" data-name="Path 521" d="M410.024,539.44v8.041h35.657V539.44l-17.828-10.293Z" transform="translate(589.443 3866.268)" fill="#f2f2f2"/>
        <path id="Path_522" data-name="Path 522" d="M370.4,539.44v8.041h35.658V539.44l-17.829-10.293Z" transform="translate(589.443 3866.268)" fill="#f2f2f2"/>
        <path id="Path_523" data-name="Path 523" d="M330.785,539.44v8.041h35.657V539.44l-17.829-10.293Z" transform="translate(589.443 3866.268)" fill="#f2f2f2"/>
        <path id="Path_524" data-name="Path 524" d="M291.165,539.44v8.041h35.658V539.44l-17.829-10.293Z" transform="translate(589.443 3866.268)" fill="#f2f2f2"/>
        <path id="Path_525" data-name="Path 525" d="M251.546,539.44v8.041H287.2V539.44l-17.829-10.293Z" transform="translate(589.443 3866.268)" fill="#f2f2f2"/>
        <path id="Path_526" data-name="Path 526" d="M211.927,539.44v8.041h35.657V539.44l-17.828-10.293Z" transform="translate(589.443 3866.268)" fill="#f2f2f2"/>
        <path id="Path_527" data-name="Path 527" d="M172.307,539.44v8.041h35.658V539.44l-17.829-10.293Z" transform="translate(589.443 3866.268)" fill="#f2f2f2"/>
        <path id="Path_528" data-name="Path 528" d="M132.688,539.44v8.041h35.657V539.44l-17.828-10.293Z" transform="translate(589.443 3866.268)" fill="#f2f2f2"/>
        <path id="Path_529" data-name="Path 529" d="M93.068,539.44v8.041h35.658V539.44L110.9,529.147Z" transform="translate(589.443 3866.268)" fill="#f2f2f2"/>
        <path id="Path_530" data-name="Path 530" d="M57.43,537.142v10.339H89.106V539.44L71.277,529.147Z" transform="translate(589.443 3866.268)" fill="#f2f2f2"/>
        <path id="Path_531" data-name="Path 531" d="M826.027,505.13v20.587l17.829,10.293,13.91-8.031V502.867l-13.91-8.031Z" transform="translate(589.443 3866.268)" fill="#f2f2f2"/>
        <path id="Path_532" data-name="Path 532" d="M786.408,505.129v20.587l17.829,10.293,17.828-10.293V505.129l-17.828-10.294Z" transform="translate(589.443 3866.268)" fill="#f2f2f2"/>
        <path id="Path_533" data-name="Path 533" d="M746.789,505.129v20.587l17.829,10.293,17.828-10.293V505.129l-17.828-10.294Z" transform="translate(589.443 3866.268)" fill="#f2f2f2"/>
        <path id="Path_534" data-name="Path 534" d="M707.169,505.129v20.587L725,536.009l17.828-10.293V505.129L725,494.835Z" transform="translate(589.443 3866.268)" fill="#f2f2f2"/>
        <path id="Path_535" data-name="Path 535" d="M667.55,505.129v20.587l17.829,10.293,17.828-10.293V505.129l-17.828-10.294Z" transform="translate(589.443 3866.268)" fill="#f2f2f2"/>
        <path id="Path_536" data-name="Path 536" d="M627.93,505.129v20.587l17.829,10.293,17.828-10.293V505.129l-17.828-10.294Z" transform="translate(589.443 3866.268)" fill="#f2f2f2"/>
        <path id="Path_537" data-name="Path 537" d="M588.311,505.129v20.587l17.829,10.293,17.829-10.293V505.129L606.14,494.835Z" transform="translate(589.443 3866.268)" fill="#f2f2f2"/>
        <path id="Path_538" data-name="Path 538" d="M548.692,505.129v20.587l17.829,10.293,17.828-10.293V505.129l-17.828-10.294Z" transform="translate(589.443 3866.268)" fill="#f2f2f2"/>
        <path id="Path_539" data-name="Path 539" d="M509.072,505.129v20.587L526.9,536.009l17.829-10.293V505.129L526.9,494.835Z" transform="translate(589.443 3866.268)" fill="#f2f2f2"/>
        <path id="Path_540" data-name="Path 540" d="M469.453,505.129v20.587l17.829,10.293,17.829-10.293V505.129l-17.829-10.294Z" transform="translate(589.443 3866.268)" fill="#f2f2f2"/>
        <path id="Path_541" data-name="Path 541" d="M429.833,505.129v20.587l17.829,10.293,17.828-10.293V505.129l-17.828-10.294Z" transform="translate(589.443 3866.268)" fill="#f2f2f2"/>
        <path id="Path_542" data-name="Path 542" d="M390.214,505.129v20.587l17.829,10.293,17.829-10.293V505.129l-17.829-10.294Z" transform="translate(589.443 3866.268)" fill="#f2f2f2"/>
        <path id="Path_543" data-name="Path 543" d="M350.595,505.129v20.587l17.829,10.293,17.828-10.293V505.129l-17.828-10.294Z" transform="translate(589.443 3866.268)" fill="#f2f2f2"/>
        <path id="Path_544" data-name="Path 544" d="M310.975,505.129v20.587L328.8,536.009l17.829-10.293V505.129L328.8,494.835Z" transform="translate(589.443 3866.268)" fill="#f2f2f2"/>
        <path id="Path_545" data-name="Path 545" d="M271.356,505.129v20.587l17.829,10.293,17.829-10.293V505.129l-17.829-10.294Z" transform="translate(589.443 3866.268)" fill="#f2f2f2"/>
        <path id="Path_546" data-name="Path 546" d="M231.736,505.129v20.587l17.829,10.293,17.828-10.293V505.129l-17.828-10.294Z" transform="translate(589.443 3866.268)" fill="#f2f2f2"/>
        <path id="Path_547" data-name="Path 547" d="M192.117,505.129v20.587l17.829,10.293,17.829-10.293V505.129l-17.829-10.294Z" transform="translate(589.443 3866.268)" fill="#f2f2f2"/>
        <path id="Path_548" data-name="Path 548" d="M152.5,505.129v20.587l17.829,10.293,17.829-10.293V505.129l-17.829-10.294Z" transform="translate(589.443 3866.268)" fill="#f2f2f2"/>
        <path id="Path_549" data-name="Path 549" d="M112.878,505.129v20.587l17.829,10.293,17.829-10.293V505.129l-17.829-10.294Z" transform="translate(589.443 3866.268)" fill="#f2f2f2"/>
        <path id="Path_550" data-name="Path 550" d="M73.259,505.129v20.587l17.829,10.293,17.829-10.293V505.129L91.088,494.835Z" transform="translate(589.443 3866.268)" fill="#f2f2f2"/>
        <path id="Path_551" data-name="Path 551" d="M57.43,532.568,69.3,525.717V505.13L57.43,498.278Z" transform="translate(589.443 3866.268)" fill="#f2f2f2"/>
        <path id="Path_552" data-name="Path 552" d="M845.837,470.818v20.587l11.93,6.887V463.931Z" transform="translate(589.443 3866.268)" fill="#f2f2f2"/>
        <path id="Path_553" data-name="Path 553" d="M806.218,470.818V491.4L824.047,501.7,841.876,491.4V470.818l-17.829-10.293Z" transform="translate(589.443 3866.268)" fill="#f2f2f2"/>
        <path id="Path_554" data-name="Path 554" d="M766.6,470.818V491.4L784.427,501.7,802.255,491.4V470.818l-17.828-10.293Z" transform="translate(589.443 3866.268)" fill="#f2f2f2"/>
        <path id="Path_555" data-name="Path 555" d="M726.979,470.818V491.4L744.808,501.7,762.637,491.4V470.818l-17.829-10.293Z" transform="translate(589.443 3866.268)" fill="#f2f2f2"/>
        <path id="Path_556" data-name="Path 556" d="M687.359,470.818V491.4L705.188,501.7,723.017,491.4V470.818l-17.829-10.293Z" transform="translate(589.443 3866.268)" fill="#f2f2f2"/>
        <path id="Path_557" data-name="Path 557" d="M647.74,470.818V491.4L665.569,501.7,683.4,491.4V470.818l-17.828-10.293Z" transform="translate(589.443 3866.268)" fill="#f2f2f2"/>
        <path id="Path_558" data-name="Path 558" d="M608.121,470.818V491.4L625.95,501.7,643.779,491.4V470.818L625.95,460.525Z" transform="translate(589.443 3866.268)" fill="#f2f2f2"/>
        <path id="Path_559" data-name="Path 559" d="M568.5,470.818V491.4L586.33,501.7,604.158,491.4V470.818L586.33,460.525Z" transform="translate(589.443 3866.268)" fill="#f2f2f2"/>
        <path id="Path_560" data-name="Path 560" d="M528.882,470.818V491.4L546.711,501.7,564.54,491.4V470.818l-17.829-10.293Z" transform="translate(589.443 3866.268)" fill="#f2f2f2"/>
        <path id="Path_561" data-name="Path 561" d="M489.262,470.818V491.4L507.091,501.7,524.92,491.4V470.818l-17.829-10.293Z" transform="translate(589.443 3866.268)" fill="#f2f2f2"/>
        <path id="Path_562" data-name="Path 562" d="M449.643,470.818V491.4L467.472,501.7,485.3,491.4V470.818l-17.828-10.293Z" transform="translate(589.443 3866.268)" fill="#f2f2f2"/>
        <path id="Path_563" data-name="Path 563" d="M410.024,470.818V491.4L427.853,501.7,445.682,491.4V470.818l-17.829-10.293Z" transform="translate(589.443 3866.268)" fill="#f2f2f2"/>
        <path id="Path_564" data-name="Path 564" d="M370.4,470.818V491.4L388.233,501.7,406.062,491.4V470.818l-17.829-10.293Z" transform="translate(589.443 3866.268)" fill="#f2f2f2"/>
        <path id="Path_565" data-name="Path 565" d="M330.785,470.818V491.4L348.614,501.7,366.442,491.4V470.818l-17.828-10.293Z" transform="translate(589.443 3866.268)" fill="#f2f2f2"/>
        <path id="Path_566" data-name="Path 566" d="M291.165,470.818V491.4L308.994,501.7,326.823,491.4V470.818l-17.829-10.293Z" transform="translate(589.443 3866.268)" fill="#f2f2f2"/>
        <path id="Path_567" data-name="Path 567" d="M251.546,470.818V491.4L269.375,501.7,287.2,491.4V470.818l-17.828-10.293Z" transform="translate(589.443 3866.268)" fill="#f2f2f2"/>
        <path id="Path_568" data-name="Path 568" d="M211.927,470.818V491.4L229.756,501.7,247.585,491.4V470.818l-17.829-10.293Z" transform="translate(589.443 3866.268)" fill="#f2f2f2"/>
        <path id="Path_569" data-name="Path 569" d="M172.307,470.818V491.4L190.136,501.7,207.965,491.4V470.818l-17.829-10.293Z" transform="translate(589.443 3866.268)" fill="#f2f2f2"/>
        <path id="Path_570" data-name="Path 570" d="M132.688,470.818V491.4L150.517,501.7,168.345,491.4V470.818l-17.828-10.293Z" transform="translate(589.443 3866.268)" fill="#f2f2f2"/>
        <path id="Path_571" data-name="Path 571" d="M93.068,470.818V491.4L110.9,501.7,128.726,491.4V470.818L110.9,460.525Z" transform="translate(589.443 3866.268)" fill="#f2f2f2"/>
        <path id="Path_572" data-name="Path 572" d="M57.43,468.52V493.7L71.277,501.7,89.106,491.4V470.818L71.277,460.525Z" transform="translate(589.443 3866.268)" fill="#f2f2f2"/>
        <path id="Path_573" data-name="Path 573" d="M826.027,436.507v20.587l17.829,10.293,13.91-8.031V434.245l-13.91-8.031Z" transform="translate(589.443 3866.268)" fill="#f2f2f2"/>
        <path id="Path_574" data-name="Path 574" d="M786.408,436.507v20.587l17.829,10.293,17.828-10.293V436.507l-17.828-10.293Z" transform="translate(589.443 3866.268)" fill="#f2f2f2"/>
        <path id="Path_575" data-name="Path 575" d="M746.789,436.507v20.587l17.829,10.293,17.828-10.293V436.507l-17.828-10.293Z" transform="translate(589.443 3866.268)" fill="#f2f2f2"/>
        <path id="Path_576" data-name="Path 576" d="M707.169,436.507v20.587L725,467.387l17.828-10.293V436.507L725,426.214Z" transform="translate(589.443 3866.268)" fill="#f2f2f2"/>
        <path id="Path_577" data-name="Path 577" d="M667.55,436.507v20.587l17.829,10.293,17.828-10.293V436.507l-17.828-10.293Z" transform="translate(589.443 3866.268)" fill="#f2f2f2"/>
        <path id="Path_578" data-name="Path 578" d="M627.93,436.507v20.587l17.829,10.293,17.828-10.293V436.507l-17.828-10.293Z" transform="translate(589.443 3866.268)" fill="#f2f2f2"/>
        <path id="Path_579" data-name="Path 579" d="M588.311,436.507v20.587l17.829,10.293,17.829-10.293V436.507L606.14,426.214Z" transform="translate(589.443 3866.268)" fill="#f2f2f2"/>
        <path id="Path_580" data-name="Path 580" d="M548.692,436.507v20.587l17.829,10.293,17.828-10.293V436.507l-17.828-10.293Z" transform="translate(589.443 3866.268)" fill="#f2f2f2"/>
        <path id="Path_581" data-name="Path 581" d="M509.072,436.507v20.587L526.9,467.387l17.829-10.293V436.507L526.9,426.214Z" transform="translate(589.443 3866.268)" fill="#f2f2f2"/>
        <path id="Path_582" data-name="Path 582" d="M469.453,436.507v20.587l17.829,10.293,17.829-10.293V436.507l-17.829-10.293Z" transform="translate(589.443 3866.268)" fill="#f2f2f2"/>
        <path id="Path_583" data-name="Path 583" d="M429.833,436.507v20.587l17.829,10.293,17.828-10.293V436.507l-17.828-10.293Z" transform="translate(589.443 3866.268)" fill="#f2f2f2"/>
        <path id="Path_584" data-name="Path 584" d="M390.214,436.507v20.587l17.829,10.293,17.829-10.293V436.507l-17.829-10.293Z" transform="translate(589.443 3866.268)" fill="#f2f2f2"/>
        <path id="Path_585" data-name="Path 585" d="M350.595,436.507v20.587l17.829,10.293,17.828-10.293V436.507l-17.828-10.293Z" transform="translate(589.443 3866.268)" fill="#f2f2f2"/>
        <path id="Path_586" data-name="Path 586" d="M310.975,436.507v20.587L328.8,467.387l17.829-10.293V436.507L328.8,426.214Z" transform="translate(589.443 3866.268)" fill="#f2f2f2"/>
        <path id="Path_587" data-name="Path 587" d="M271.356,436.507v20.587l17.829,10.293,17.829-10.293V436.507l-17.829-10.293Z" transform="translate(589.443 3866.268)" fill="#f2f2f2"/>
        <path id="Path_588" data-name="Path 588" d="M231.736,436.507v20.587l17.829,10.293,17.828-10.293V436.507l-17.828-10.293Z" transform="translate(589.443 3866.268)" fill="#f2f2f2"/>
        <path id="Path_589" data-name="Path 589" d="M192.117,436.507v20.587l17.829,10.293,17.829-10.293V436.507l-17.829-10.293Z" transform="translate(589.443 3866.268)" fill="#f2f2f2"/>
        <path id="Path_590" data-name="Path 590" d="M152.5,436.507v20.587l17.829,10.293,17.829-10.293V436.507l-17.829-10.293Z" transform="translate(589.443 3866.268)" fill="#f2f2f2"/>
        <path id="Path_591" data-name="Path 591" d="M112.878,436.507v20.587l17.829,10.293,17.829-10.293V436.507l-17.829-10.293Z" transform="translate(589.443 3866.268)" fill="#f2f2f2"/>
        <path id="Path_592" data-name="Path 592" d="M73.259,436.507v20.587l17.829,10.293,17.829-10.293V436.507L91.088,426.214Z" transform="translate(589.443 3866.268)" fill="#f2f2f2"/>
        <path id="Path_593" data-name="Path 593" d="M57.43,463.944,69.3,457.094V436.507L57.43,429.655Z" transform="translate(589.443 3866.268)" fill="#f2f2f2"/>
        <path id="Path_594" data-name="Path 594" d="M845.837,402.2v20.587l11.93,6.888V395.308Z" transform="translate(589.443 3866.268)" fill="#f2f2f2"/>
        <path id="Path_595" data-name="Path 595" d="M806.218,402.2v20.587l17.829,10.293,17.829-10.293V402.2L824.047,391.9Z" transform="translate(589.443 3866.268)" fill="#f2f2f2"/>
        <path id="Path_596" data-name="Path 596" d="M766.6,402.2v20.587l17.829,10.293,17.828-10.293V402.2L784.427,391.9Z" transform="translate(589.443 3866.268)" fill="#f2f2f2"/>
        <path id="Path_597" data-name="Path 597" d="M726.979,402.2v20.587l17.829,10.293,17.829-10.293V402.2L744.808,391.9Z" transform="translate(589.443 3866.268)" fill="#f2f2f2"/>
        <path id="Path_598" data-name="Path 598" d="M687.359,402.2v20.587l17.829,10.293,17.829-10.293V402.2L705.188,391.9Z" transform="translate(589.443 3866.268)" fill="#f2f2f2"/>
        <path id="Path_599" data-name="Path 599" d="M647.74,402.2v20.587l17.829,10.293L683.4,422.782V402.2L665.569,391.9Z" transform="translate(589.443 3866.268)" fill="#f2f2f2"/>
        <path id="Path_600" data-name="Path 600" d="M608.121,402.2v20.587l17.829,10.293,17.829-10.293V402.2L625.95,391.9Z" transform="translate(589.443 3866.268)" fill="#f2f2f2"/>
        <path id="Path_601" data-name="Path 601" d="M568.5,402.2v20.587l17.829,10.293,17.828-10.293V402.2L586.33,391.9Z" transform="translate(589.443 3866.268)" fill="#f2f2f2"/>
        <path id="Path_602" data-name="Path 602" d="M528.882,402.2v20.587l17.829,10.293,17.829-10.293V402.2L546.711,391.9Z" transform="translate(589.443 3866.268)" fill="#f2f2f2"/>
        <path id="Path_603" data-name="Path 603" d="M489.262,402.2v20.587l17.829,10.293,17.829-10.293V402.2L507.091,391.9Z" transform="translate(589.443 3866.268)" fill="#f2f2f2"/>
        <path id="Path_604" data-name="Path 604" d="M449.643,402.2v20.587l17.829,10.293L485.3,422.782V402.2L467.472,391.9Z" transform="translate(589.443 3866.268)" fill="#f2f2f2"/>
        <path id="Path_605" data-name="Path 605" d="M410.024,402.2v20.587l17.829,10.293,17.829-10.293V402.2L427.853,391.9Z" transform="translate(589.443 3866.268)" fill="#f2f2f2"/>
        <path id="Path_606" data-name="Path 606" d="M370.4,402.2v20.587l17.829,10.293,17.829-10.293V402.2L388.233,391.9Z" transform="translate(589.443 3866.268)" fill="#f2f2f2"/>
        <path id="Path_607" data-name="Path 607" d="M330.785,402.2v20.587l17.829,10.293,17.828-10.293V402.2L348.614,391.9Z" transform="translate(589.443 3866.268)" fill="#f2f2f2"/>
        <path id="Path_608" data-name="Path 608" d="M291.165,402.2v20.587l17.829,10.293,17.829-10.293V402.2L308.994,391.9Z" transform="translate(589.443 3866.268)" fill="#f2f2f2"/>
        <path id="Path_609" data-name="Path 609" d="M251.546,402.2v20.587l17.829,10.293L287.2,422.782V402.2L269.375,391.9Z" transform="translate(589.443 3866.268)" fill="#f2f2f2"/>
        <path id="Path_610" data-name="Path 610" d="M211.927,402.2v20.587l17.829,10.293,17.829-10.293V402.2L229.756,391.9Z" transform="translate(589.443 3866.268)" fill="#f2f2f2"/>
        <path id="Path_611" data-name="Path 611" d="M172.307,402.2v20.587l17.829,10.293,17.829-10.293V402.2L190.136,391.9Z" transform="translate(589.443 3866.268)" fill="#f2f2f2"/>
        <path id="Path_612" data-name="Path 612" d="M132.688,402.2v20.587l17.829,10.293,17.828-10.293V402.2L150.517,391.9Z" transform="translate(589.443 3866.268)" fill="#f2f2f2"/>
        <path id="Path_613" data-name="Path 613" d="M93.068,402.2v20.587L110.9,433.075l17.829-10.293V402.2L110.9,391.9Z" transform="translate(589.443 3866.268)" fill="#f2f2f2"/>
        <path id="Path_614" data-name="Path 614" d="M57.43,399.9V425.08l13.847,8,17.829-10.294V402.195L71.277,391.9Z" transform="translate(589.443 3866.268)" fill="#f2f2f2"/>
        <path id="Path_615" data-name="Path 615" d="M826.027,367.884v20.587l17.829,10.293,13.91-8.031V365.621l-13.91-8.031Z" transform="translate(589.443 3866.268)" fill="#f2f2f2"/>
        <path id="Path_616" data-name="Path 616" d="M786.408,367.884v20.587l17.829,10.293,17.828-10.293V367.884l-17.828-10.293Z" transform="translate(589.443 3866.268)" fill="#f2f2f2"/>
        <path id="Path_617" data-name="Path 617" d="M746.789,367.884v20.587l17.829,10.293,17.828-10.293V367.884l-17.828-10.293Z" transform="translate(589.443 3866.268)" fill="#f2f2f2"/>
        <path id="Path_618" data-name="Path 618" d="M707.169,367.884v20.587L725,398.764l17.828-10.293V367.884L725,357.591Z" transform="translate(589.443 3866.268)" fill="#f2f2f2"/>
        <path id="Path_619" data-name="Path 619" d="M667.55,367.884v20.587l17.829,10.293,17.828-10.293V367.884l-17.828-10.293Z" transform="translate(589.443 3866.268)" fill="#f2f2f2"/>
        <path id="Path_620" data-name="Path 620" d="M627.93,367.884v20.587l17.829,10.293,17.828-10.293V367.884l-17.828-10.293Z" transform="translate(589.443 3866.268)" fill="#f2f2f2"/>
        <path id="Path_621" data-name="Path 621" d="M588.311,367.884v20.587l17.829,10.293,17.829-10.293V367.884L606.14,357.591Z" transform="translate(589.443 3866.268)" fill="#f2f2f2"/>
        <path id="Path_622" data-name="Path 622" d="M548.692,367.884v20.587l17.829,10.293,17.828-10.293V367.884l-17.828-10.293Z" transform="translate(589.443 3866.268)" fill="#f2f2f2"/>
        <path id="Path_623" data-name="Path 623" d="M509.072,367.884v20.587L526.9,398.764l17.829-10.293V367.884L526.9,357.591Z" transform="translate(589.443 3866.268)" fill="#f2f2f2"/>
        <path id="Path_624" data-name="Path 624" d="M469.453,367.884v20.587l17.829,10.293,17.829-10.293V367.884l-17.829-10.293Z" transform="translate(589.443 3866.268)" fill="#f2f2f2"/>
        <path id="Path_625" data-name="Path 625" d="M429.833,367.884v20.587l17.829,10.293,17.828-10.293V367.884l-17.828-10.293Z" transform="translate(589.443 3866.268)" fill="#f2f2f2"/>
        <path id="Path_626" data-name="Path 626" d="M390.214,367.884v20.587l17.829,10.293,17.829-10.293V367.884l-17.829-10.293Z" transform="translate(589.443 3866.268)" fill="#f2f2f2"/>
        <path id="Path_627" data-name="Path 627" d="M350.595,367.884v20.587l17.829,10.293,17.828-10.293V367.884l-17.828-10.293Z" transform="translate(589.443 3866.268)" fill="#f2f2f2"/>
        <path id="Path_628" data-name="Path 628" d="M310.975,367.884v20.587L328.8,398.764l17.829-10.293V367.884L328.8,357.591Z" transform="translate(589.443 3866.268)" fill="#f2f2f2"/>
        <path id="Path_629" data-name="Path 629" d="M271.356,367.884v20.587l17.829,10.293,17.829-10.293V367.884l-17.829-10.293Z" transform="translate(589.443 3866.268)" fill="#f2f2f2"/>
        <path id="Path_630" data-name="Path 630" d="M231.736,367.884v20.587l17.829,10.293,17.828-10.293V367.884l-17.828-10.293Z" transform="translate(589.443 3866.268)" fill="#f2f2f2"/>
        <path id="Path_631" data-name="Path 631" d="M192.117,367.884v20.587l17.829,10.293,17.829-10.293V367.884l-17.829-10.293Z" transform="translate(589.443 3866.268)" fill="#f2f2f2"/>
        <path id="Path_632" data-name="Path 632" d="M152.5,367.884v20.587l17.829,10.293,17.829-10.293V367.884l-17.829-10.293Z" transform="translate(589.443 3866.268)" fill="#f2f2f2"/>
        <path id="Path_633" data-name="Path 633" d="M112.878,367.884v20.587l17.829,10.293,17.829-10.293V367.884l-17.829-10.293Z" transform="translate(589.443 3866.268)" fill="#f2f2f2"/>
        <path id="Path_634" data-name="Path 634" d="M73.259,367.884v20.587l17.829,10.293,17.829-10.293V367.884L91.088,357.591Z" transform="translate(589.443 3866.268)" fill="#f2f2f2"/>
        <path id="Path_635" data-name="Path 635" d="M57.43,395.322,69.3,388.471V367.884L57.43,361.032Z" transform="translate(589.443 3866.268)" fill="#f2f2f2"/>
        <path id="Path_636" data-name="Path 636" d="M845.837,333.573V354.16l11.93,6.887V326.686Z" transform="translate(589.443 3866.268)" fill="#f2f2f2"/>
        <path id="Path_637" data-name="Path 637" d="M806.218,333.572v20.587l17.829,10.293,17.829-10.293V333.572l-17.829-10.294Z" transform="translate(589.443 3866.268)" fill="#f2f2f2"/>
        <path id="Path_638" data-name="Path 638" d="M766.6,333.572v20.587l17.829,10.293,17.828-10.293V333.572l-17.828-10.294Z" transform="translate(589.443 3866.268)" fill="#f2f2f2"/>
        <path id="Path_639" data-name="Path 639" d="M726.979,333.572v20.587l17.829,10.293,17.829-10.293V333.572l-17.829-10.294Z" transform="translate(589.443 3866.268)" fill="#f2f2f2"/>
        <path id="Path_640" data-name="Path 640" d="M687.359,333.572v20.587l17.829,10.293,17.829-10.293V333.572l-17.829-10.294Z" transform="translate(589.443 3866.268)" fill="#f2f2f2"/>
        <path id="Path_641" data-name="Path 641" d="M647.74,333.572v20.587l17.829,10.293L683.4,354.159V333.572l-17.828-10.294Z" transform="translate(589.443 3866.268)" fill="#f2f2f2"/>
        <path id="Path_642" data-name="Path 642" d="M608.121,333.572v20.587l17.829,10.293,17.829-10.293V333.572L625.95,323.278Z" transform="translate(589.443 3866.268)" fill="#f2f2f2"/>
        <path id="Path_643" data-name="Path 643" d="M568.5,333.572v20.587l17.829,10.293,17.828-10.293V333.572L586.33,323.278Z" transform="translate(589.443 3866.268)" fill="#f2f2f2"/>
        <path id="Path_644" data-name="Path 644" d="M528.882,333.572v20.587l17.829,10.293,17.829-10.293V333.572l-17.829-10.294Z" transform="translate(589.443 3866.268)" fill="#f2f2f2"/>
        <path id="Path_645" data-name="Path 645" d="M489.262,333.572v20.587l17.829,10.293,17.829-10.293V333.572l-17.829-10.294Z" transform="translate(589.443 3866.268)" fill="#f2f2f2"/>
        <path id="Path_646" data-name="Path 646" d="M449.643,333.572v20.587l17.829,10.293L485.3,354.159V333.572l-17.828-10.294Z" transform="translate(589.443 3866.268)" fill="#f2f2f2"/>
        <path id="Path_647" data-name="Path 647" d="M410.024,333.572v20.587l17.829,10.293,17.829-10.293V333.572l-17.829-10.294Z" transform="translate(589.443 3866.268)" fill="#f2f2f2"/>
        <path id="Path_648" data-name="Path 648" d="M370.4,333.572v20.587l17.829,10.293,17.829-10.293V333.572l-17.829-10.294Z" transform="translate(589.443 3866.268)" fill="#f2f2f2"/>
        <path id="Path_649" data-name="Path 649" d="M330.785,333.572v20.587l17.829,10.293,17.828-10.293V333.572l-17.828-10.294Z" transform="translate(589.443 3866.268)" fill="#f2f2f2"/>
        <path id="Path_650" data-name="Path 650" d="M291.165,333.572v20.587l17.829,10.293,17.829-10.293V333.572l-17.829-10.294Z" transform="translate(589.443 3866.268)" fill="#f2f2f2"/>
        <path id="Path_651" data-name="Path 651" d="M251.546,333.572v20.587l17.829,10.293L287.2,354.159V333.572l-17.828-10.294Z" transform="translate(589.443 3866.268)" fill="#f2f2f2"/>
        <path id="Path_652" data-name="Path 652" d="M211.927,333.572v20.587l17.829,10.293,17.829-10.293V333.572l-17.829-10.294Z" transform="translate(589.443 3866.268)" fill="#f2f2f2"/>
        <path id="Path_653" data-name="Path 653" d="M172.307,333.572v20.587l17.829,10.293,17.829-10.293V333.572l-17.829-10.294Z" transform="translate(589.443 3866.268)" fill="#f2f2f2"/>
        <path id="Path_654" data-name="Path 654" d="M132.688,333.572v20.587l17.829,10.293,17.828-10.293V333.572l-17.828-10.294Z" transform="translate(589.443 3866.268)" fill="#f2f2f2"/>
        <path id="Path_655" data-name="Path 655" d="M93.068,333.572v20.587L110.9,364.452l17.829-10.293V333.572L110.9,323.278Z" transform="translate(589.443 3866.268)" fill="#f2f2f2"/>
        <path id="Path_656" data-name="Path 656" d="M57.43,331.274v25.183l13.847,7.995,17.829-10.293V333.572L71.277,323.279Z" transform="translate(589.443 3866.268)" fill="#f2f2f2"/>
        <path id="Path_657" data-name="Path 657" d="M826.027,299.261v20.587l17.829,10.293,13.91-8.031V297l-13.91-8.031Z" transform="translate(589.443 3866.268)" fill="#f2f2f2"/>
        <path id="Path_658" data-name="Path 658" d="M786.408,299.261v20.587l17.829,10.293,17.828-10.293V299.261l-17.828-10.293Z" transform="translate(589.443 3866.268)" fill="#f2f2f2"/>
        <path id="Path_659" data-name="Path 659" d="M746.789,299.261v20.587l17.829,10.293,17.828-10.293V299.261l-17.828-10.293Z" transform="translate(589.443 3866.268)" fill="#f2f2f2"/>
        <path id="Path_660" data-name="Path 660" d="M707.169,299.261v20.587L725,330.141l17.828-10.293V299.261L725,288.968Z" transform="translate(589.443 3866.268)" fill="#f2f2f2"/>
        <path id="Path_661" data-name="Path 661" d="M667.55,299.261v20.587l17.829,10.293,17.828-10.293V299.261l-17.828-10.293Z" transform="translate(589.443 3866.268)" fill="#f2f2f2"/>
        <path id="Path_662" data-name="Path 662" d="M627.93,299.261v20.587l17.829,10.293,17.828-10.293V299.261l-17.828-10.293Z" transform="translate(589.443 3866.268)" fill="#f2f2f2"/>
        <path id="Path_663" data-name="Path 663" d="M588.311,299.261v20.587l17.829,10.293,17.829-10.293V299.261L606.14,288.968Z" transform="translate(589.443 3866.268)" fill="#f2f2f2"/>
        <path id="Path_664" data-name="Path 664" d="M548.692,299.261v20.587l17.829,10.293,17.828-10.293V299.261l-17.828-10.293Z" transform="translate(589.443 3866.268)" fill="#f2f2f2"/>
        <path id="Path_665" data-name="Path 665" d="M509.072,299.261v20.587L526.9,330.141l17.829-10.293V299.261L526.9,288.968Z" transform="translate(589.443 3866.268)" fill="#f2f2f2"/>
        <path id="Path_666" data-name="Path 666" d="M469.453,299.261v20.587l17.829,10.293,17.829-10.293V299.261l-17.829-10.293Z" transform="translate(589.443 3866.268)" fill="#f2f2f2"/>
        <path id="Path_667" data-name="Path 667" d="M429.833,299.261v20.587l17.829,10.293,17.828-10.293V299.261l-17.828-10.293Z" transform="translate(589.443 3866.268)" fill="#f2f2f2"/>
        <path id="Path_668" data-name="Path 668" d="M390.214,299.261v20.587l17.829,10.293,17.829-10.293V299.261l-17.829-10.293Z" transform="translate(589.443 3866.268)" fill="#f2f2f2"/>
        <path id="Path_669" data-name="Path 669" d="M350.595,299.261v20.587l17.829,10.293,17.828-10.293V299.261l-17.828-10.293Z" transform="translate(589.443 3866.268)" fill="#f2f2f2"/>
        <path id="Path_670" data-name="Path 670" d="M310.975,299.261v20.587L328.8,330.141l17.829-10.293V299.261L328.8,288.968Z" transform="translate(589.443 3866.268)" fill="#f2f2f2"/>
        <path id="Path_671" data-name="Path 671" d="M271.356,299.261v20.587l17.829,10.293,17.829-10.293V299.261l-17.829-10.293Z" transform="translate(589.443 3866.268)" fill="#f2f2f2"/>
        <path id="Path_672" data-name="Path 672" d="M231.736,299.261v20.587l17.829,10.293,17.828-10.293V299.261l-17.828-10.293Z" transform="translate(589.443 3866.268)" fill="#f2f2f2"/>
        <path id="Path_673" data-name="Path 673" d="M192.117,299.261v20.587l17.829,10.293,17.829-10.293V299.261l-17.829-10.293Z" transform="translate(589.443 3866.268)" fill="#f2f2f2"/>
        <path id="Path_674" data-name="Path 674" d="M152.5,299.261v20.587l17.829,10.293,17.829-10.293V299.261l-17.829-10.293Z" transform="translate(589.443 3866.268)" fill="#f2f2f2"/>
        <path id="Path_675" data-name="Path 675" d="M112.878,299.261v20.587l17.829,10.293,17.829-10.293V299.261l-17.829-10.293Z" transform="translate(589.443 3866.268)" fill="#f2f2f2"/>
        <path id="Path_676" data-name="Path 676" d="M73.259,299.261v20.587l17.829,10.293,17.829-10.293V299.261L91.088,288.968Z" transform="translate(589.443 3866.268)" fill="#f2f2f2"/>
        <path id="Path_677" data-name="Path 677" d="M57.43,326.7,69.3,319.848V299.261L57.43,292.41Z" transform="translate(589.443 3866.268)" fill="#f2f2f2"/>
        <path id="Path_678" data-name="Path 678" d="M845.837,264.949v20.587l11.93,6.888V258.063Z" transform="translate(589.443 3866.268)" fill="#f2f2f2"/>
        <path id="Path_679" data-name="Path 679" d="M806.218,264.95v20.587l17.829,10.293,17.829-10.293V264.95l-17.829-10.293Z" transform="translate(589.443 3866.268)" fill="#f2f2f2"/>
        <path id="Path_680" data-name="Path 680" d="M766.6,264.95v20.587l17.829,10.293,17.828-10.293V264.95l-17.828-10.293Z" transform="translate(589.443 3866.268)" fill="#f2f2f2"/>
        <path id="Path_681" data-name="Path 681" d="M726.979,264.95v20.587l17.829,10.293,17.829-10.293V264.95l-17.829-10.293Z" transform="translate(589.443 3866.268)" fill="#f2f2f2"/>
        <path id="Path_682" data-name="Path 682" d="M687.359,264.95v20.587l17.829,10.293,17.829-10.293V264.95l-17.829-10.293Z" transform="translate(589.443 3866.268)" fill="#f2f2f2"/>
        <path id="Path_683" data-name="Path 683" d="M647.74,264.95v20.587l17.829,10.293L683.4,285.537V264.95l-17.828-10.293Z" transform="translate(589.443 3866.268)" fill="#f2f2f2"/>
        <path id="Path_684" data-name="Path 684" d="M608.121,264.95v20.587L625.95,295.83l17.829-10.293V264.95L625.95,254.657Z" transform="translate(589.443 3866.268)" fill="#f2f2f2"/>
        <path id="Path_685" data-name="Path 685" d="M568.5,264.95v20.587L586.33,295.83l17.828-10.293V264.95L586.33,254.657Z" transform="translate(589.443 3866.268)" fill="#f2f2f2"/>
        <path id="Path_686" data-name="Path 686" d="M528.882,264.95v20.587l17.829,10.293,17.829-10.293V264.95l-17.829-10.293Z" transform="translate(589.443 3866.268)" fill="#f2f2f2"/>
        <path id="Path_687" data-name="Path 687" d="M489.262,264.95v20.587l17.829,10.293,17.829-10.293V264.95l-17.829-10.293Z" transform="translate(589.443 3866.268)" fill="#f2f2f2"/>
        <path id="Path_688" data-name="Path 688" d="M449.643,264.95v20.587l17.829,10.293L485.3,285.537V264.95l-17.828-10.293Z" transform="translate(589.443 3866.268)" fill="#f2f2f2"/>
        <path id="Path_689" data-name="Path 689" d="M410.024,264.95v20.587l17.829,10.293,17.829-10.293V264.95l-17.829-10.293Z" transform="translate(589.443 3866.268)" fill="#f2f2f2"/>
        <path id="Path_690" data-name="Path 690" d="M370.4,264.95v20.587l17.829,10.293,17.829-10.293V264.95l-17.829-10.293Z" transform="translate(589.443 3866.268)" fill="#f2f2f2"/>
        <path id="Path_691" data-name="Path 691" d="M330.785,264.95v20.587l17.829,10.293,17.828-10.293V264.95l-17.828-10.293Z" transform="translate(589.443 3866.268)" fill="#f2f2f2"/>
        <path id="Path_692" data-name="Path 692" d="M291.165,264.95v20.587l17.829,10.293,17.829-10.293V264.95l-17.829-10.293Z" transform="translate(589.443 3866.268)" fill="#f2f2f2"/>
        <path id="Path_693" data-name="Path 693" d="M251.546,264.95v20.587l17.829,10.293L287.2,285.537V264.95l-17.828-10.293Z" transform="translate(589.443 3866.268)" fill="#f2f2f2"/>
        <path id="Path_694" data-name="Path 694" d="M211.927,264.95v20.587l17.829,10.293,17.829-10.293V264.95l-17.829-10.293Z" transform="translate(589.443 3866.268)" fill="#f2f2f2"/>
        <path id="Path_695" data-name="Path 695" d="M172.307,264.95v20.587l17.829,10.293,17.829-10.293V264.95l-17.829-10.293Z" transform="translate(589.443 3866.268)" fill="#f2f2f2"/>
        <path id="Path_696" data-name="Path 696" d="M132.688,264.95v20.587l17.829,10.293,17.828-10.293V264.95l-17.828-10.293Z" transform="translate(589.443 3866.268)" fill="#f2f2f2"/>
        <path id="Path_697" data-name="Path 697" d="M93.068,264.95v20.587L110.9,295.83l17.829-10.293V264.95L110.9,254.657Z" transform="translate(589.443 3866.268)" fill="#f2f2f2"/>
        <path id="Path_698" data-name="Path 698" d="M57.43,262.651v25.183l13.847,8,17.829-10.294V264.949L71.277,254.656Z" transform="translate(589.443 3866.268)" fill="#f2f2f2"/>
        <path id="Path_699" data-name="Path 699" d="M826.027,230.638v20.588l17.829,10.293,13.91-8.031V228.376l-13.91-8.031Z" transform="translate(589.443 3866.268)" fill="#f2f2f2"/>
        <path id="Path_700" data-name="Path 700" d="M786.408,230.638v20.587l17.829,10.293,17.828-10.293V230.638l-17.828-10.293Z" transform="translate(589.443 3866.268)" fill="#f2f2f2"/>
        <path id="Path_701" data-name="Path 701" d="M746.789,230.638v20.587l17.829,10.293,17.828-10.293V230.638l-17.828-10.293Z" transform="translate(589.443 3866.268)" fill="#f2f2f2"/>
        <path id="Path_702" data-name="Path 702" d="M707.169,230.638v20.587L725,261.518l17.828-10.293V230.638L725,220.345Z" transform="translate(589.443 3866.268)" fill="#f2f2f2"/>
        <path id="Path_703" data-name="Path 703" d="M667.55,230.638v20.587l17.829,10.293,17.828-10.293V230.638l-17.828-10.293Z" transform="translate(589.443 3866.268)" fill="#f2f2f2"/>
        <path id="Path_704" data-name="Path 704" d="M627.93,230.638v20.587l17.829,10.293,17.828-10.293V230.638l-17.828-10.293Z" transform="translate(589.443 3866.268)" fill="#f2f2f2"/>
        <path id="Path_705" data-name="Path 705" d="M588.311,230.638v20.587l17.829,10.293,17.829-10.293V230.638L606.14,220.345Z" transform="translate(589.443 3866.268)" fill="#f2f2f2"/>
        <path id="Path_706" data-name="Path 706" d="M548.692,230.638v20.587l17.829,10.293,17.828-10.293V230.638l-17.828-10.293Z" transform="translate(589.443 3866.268)" fill="#f2f2f2"/>
        <path id="Path_707" data-name="Path 707" d="M509.072,230.638v20.587L526.9,261.518l17.829-10.293V230.638L526.9,220.345Z" transform="translate(589.443 3866.268)" fill="#f2f2f2"/>
        <path id="Path_708" data-name="Path 708" d="M469.453,230.638v20.587l17.829,10.293,17.829-10.293V230.638l-17.829-10.293Z" transform="translate(589.443 3866.268)" fill="#f2f2f2"/>
        <path id="Path_709" data-name="Path 709" d="M429.833,230.638v20.587l17.829,10.293,17.828-10.293V230.638l-17.828-10.293Z" transform="translate(589.443 3866.268)" fill="#f2f2f2"/>
        <path id="Path_710" data-name="Path 710" d="M390.214,230.638v20.587l17.829,10.293,17.829-10.293V230.638l-17.829-10.293Z" transform="translate(589.443 3866.268)" fill="#f2f2f2"/>
        <path id="Path_711" data-name="Path 711" d="M350.595,230.638v20.587l17.829,10.293,17.828-10.293V230.638l-17.828-10.293Z" transform="translate(589.443 3866.268)" fill="#f2f2f2"/>
        <path id="Path_712" data-name="Path 712" d="M310.975,230.638v20.587L328.8,261.518l17.829-10.293V230.638L328.8,220.345Z" transform="translate(589.443 3866.268)" fill="#f2f2f2"/>
        <path id="Path_713" data-name="Path 713" d="M271.356,230.638v20.587l17.829,10.293,17.829-10.293V230.638l-17.829-10.293Z" transform="translate(589.443 3866.268)" fill="#f2f2f2"/>
        <path id="Path_714" data-name="Path 714" d="M231.736,230.638v20.587l17.829,10.293,17.828-10.293V230.638l-17.828-10.293Z" transform="translate(589.443 3866.268)" fill="#f2f2f2"/>
        <path id="Path_715" data-name="Path 715" d="M192.117,230.638v20.587l17.829,10.293,17.829-10.293V230.638l-17.829-10.293Z" transform="translate(589.443 3866.268)" fill="#f2f2f2"/>
        <path id="Path_716" data-name="Path 716" d="M152.5,230.638v20.587l17.829,10.293,17.829-10.293V230.638l-17.829-10.293Z" transform="translate(589.443 3866.268)" fill="#f2f2f2"/>
        <path id="Path_717" data-name="Path 717" d="M112.878,230.638v20.587l17.829,10.293,17.829-10.293V230.638l-17.829-10.293Z" transform="translate(589.443 3866.268)" fill="#f2f2f2"/>
        <path id="Path_718" data-name="Path 718" d="M73.259,230.638v20.587l17.829,10.293,17.829-10.293V230.638L91.088,220.345Z" transform="translate(589.443 3866.268)" fill="#f2f2f2"/>
        <path id="Path_719" data-name="Path 719" d="M57.43,258.077,69.3,251.226V230.638L57.43,223.787Z" transform="translate(589.443 3866.268)" fill="#f2f2f2"/>
        <path id="Path_720" data-name="Path 720" d="M845.837,196.326v20.587l11.93,6.888V189.439Z" transform="translate(589.443 3866.268)" fill="#f2f2f2"/>
        <path id="Path_721" data-name="Path 721" d="M806.218,196.327v20.587l17.829,10.293,17.829-10.293V196.327l-17.829-10.293Z" transform="translate(589.443 3866.268)" fill="#f2f2f2"/>
        <path id="Path_722" data-name="Path 722" d="M766.6,196.327v20.587l17.829,10.293,17.828-10.293V196.327l-17.828-10.293Z" transform="translate(589.443 3866.268)" fill="#f2f2f2"/>
        <path id="Path_723" data-name="Path 723" d="M726.979,196.327v20.587l17.829,10.293,17.829-10.293V196.327l-17.829-10.293Z" transform="translate(589.443 3866.268)" fill="#f2f2f2"/>
        <path id="Path_724" data-name="Path 724" d="M687.359,196.327v20.587l17.829,10.293,17.829-10.293V196.327l-17.829-10.293Z" transform="translate(589.443 3866.268)" fill="#f2f2f2"/>
        <path id="Path_725" data-name="Path 725" d="M647.74,196.327v20.587l17.829,10.293L683.4,216.914V196.327l-17.828-10.293Z" transform="translate(589.443 3866.268)" fill="#f2f2f2"/>
        <path id="Path_726" data-name="Path 726" d="M608.121,196.327v20.587l17.829,10.293,17.829-10.293V196.327L625.95,186.034Z" transform="translate(589.443 3866.268)" fill="#f2f2f2"/>
        <path id="Path_727" data-name="Path 727" d="M568.5,196.327v20.587l17.829,10.293,17.828-10.293V196.327L586.33,186.034Z" transform="translate(589.443 3866.268)" fill="#f2f2f2"/>
        <path id="Path_728" data-name="Path 728" d="M528.882,196.327v20.587l17.829,10.293,17.829-10.293V196.327l-17.829-10.293Z" transform="translate(589.443 3866.268)" fill="#f2f2f2"/>
        <path id="Path_729" data-name="Path 729" d="M489.262,196.327v20.587l17.829,10.293,17.829-10.293V196.327l-17.829-10.293Z" transform="translate(589.443 3866.268)" fill="#f2f2f2"/>
        <path id="Path_730" data-name="Path 730" d="M449.643,196.327v20.587l17.829,10.293L485.3,216.914V196.327l-17.828-10.293Z" transform="translate(589.443 3866.268)" fill="#f2f2f2"/>
        <path id="Path_731" data-name="Path 731" d="M410.024,196.327v20.587l17.829,10.293,17.829-10.293V196.327l-17.829-10.293Z" transform="translate(589.443 3866.268)" fill="#f2f2f2"/>
        <path id="Path_732" data-name="Path 732" d="M370.4,196.327v20.587l17.829,10.293,17.829-10.293V196.327l-17.829-10.293Z" transform="translate(589.443 3866.268)" fill="#f2f2f2"/>
        <path id="Path_733" data-name="Path 733" d="M330.785,196.327v20.587l17.829,10.293,17.828-10.293V196.327l-17.828-10.293Z" transform="translate(589.443 3866.268)" fill="#f2f2f2"/>
        <path id="Path_734" data-name="Path 734" d="M291.165,196.327v20.587l17.829,10.293,17.829-10.293V196.327l-17.829-10.293Z" transform="translate(589.443 3866.268)" fill="#f2f2f2"/>
        <path id="Path_735" data-name="Path 735" d="M251.546,196.327v20.587l17.829,10.293L287.2,216.914V196.327l-17.828-10.293Z" transform="translate(589.443 3866.268)" fill="#f2f2f2"/>
        <path id="Path_736" data-name="Path 736" d="M211.927,196.327v20.587l17.829,10.293,17.829-10.293V196.327l-17.829-10.293Z" transform="translate(589.443 3866.268)" fill="#f2f2f2"/>
        <path id="Path_737" data-name="Path 737" d="M172.307,196.327v20.587l17.829,10.293,17.829-10.293V196.327l-17.829-10.293Z" transform="translate(589.443 3866.268)" fill="#f2f2f2"/>
        <path id="Path_738" data-name="Path 738" d="M132.688,196.327v20.587l17.829,10.293,17.828-10.293V196.327l-17.828-10.293Z" transform="translate(589.443 3866.268)" fill="#f2f2f2"/>
        <path id="Path_739" data-name="Path 739" d="M93.068,196.327v20.587L110.9,227.207l17.829-10.293V196.327L110.9,186.034Z" transform="translate(589.443 3866.268)" fill="#f2f2f2"/>
        <path id="Path_740" data-name="Path 740" d="M57.43,194.028v25.184l13.847,7.995,17.829-10.293V196.326L71.277,186.033Z" transform="translate(589.443 3866.268)" fill="#f2f2f2"/>
        <path id="Path_741" data-name="Path 741" d="M826.027,162.016V182.6L843.856,192.9l13.91-8.031V159.754l-13.91-8.031Z" transform="translate(589.443 3866.268)" fill="#f2f2f2"/>
        <path id="Path_742" data-name="Path 742" d="M786.408,162.015V182.6L804.237,192.9,822.065,182.6V162.015l-17.828-10.293Z" transform="translate(589.443 3866.268)" fill="#f2f2f2"/>
        <path id="Path_743" data-name="Path 743" d="M746.789,162.015V182.6L764.618,192.9,782.446,182.6V162.015l-17.828-10.293Z" transform="translate(589.443 3866.268)" fill="#f2f2f2"/>
        <path id="Path_744" data-name="Path 744" d="M707.169,162.015V182.6L725,192.9,742.826,182.6V162.015L725,151.722Z" transform="translate(589.443 3866.268)" fill="#f2f2f2"/>
        <path id="Path_745" data-name="Path 745" d="M667.55,162.015V182.6L685.379,192.9,703.207,182.6V162.015l-17.828-10.293Z" transform="translate(589.443 3866.268)" fill="#f2f2f2"/>
        <path id="Path_746" data-name="Path 746" d="M627.93,162.015V182.6L645.759,192.9,663.587,182.6V162.015l-17.828-10.293Z" transform="translate(589.443 3866.268)" fill="#f2f2f2"/>
        <path id="Path_747" data-name="Path 747" d="M588.311,162.015V182.6L606.14,192.9,623.969,182.6V162.015L606.14,151.722Z" transform="translate(589.443 3866.268)" fill="#f2f2f2"/>
        <path id="Path_748" data-name="Path 748" d="M548.692,162.015V182.6L566.521,192.9,584.349,182.6V162.015l-17.828-10.293Z" transform="translate(589.443 3866.268)" fill="#f2f2f2"/>
        <path id="Path_749" data-name="Path 749" d="M509.072,162.015V182.6L526.9,192.9,544.73,182.6V162.015L526.9,151.722Z" transform="translate(589.443 3866.268)" fill="#f2f2f2"/>
        <path id="Path_750" data-name="Path 750" d="M469.453,162.015V182.6L487.282,192.9,505.111,182.6V162.015l-17.829-10.293Z" transform="translate(589.443 3866.268)" fill="#f2f2f2"/>
        <path id="Path_751" data-name="Path 751" d="M429.833,162.015V182.6L447.662,192.9,465.49,182.6V162.015l-17.828-10.293Z" transform="translate(589.443 3866.268)" fill="#f2f2f2"/>
        <path id="Path_752" data-name="Path 752" d="M390.214,162.015V182.6L408.043,192.9,425.872,182.6V162.015l-17.829-10.293Z" transform="translate(589.443 3866.268)" fill="#f2f2f2"/>
        <path id="Path_753" data-name="Path 753" d="M350.595,162.015V182.6L368.424,192.9,386.252,182.6V162.015l-17.828-10.293Z" transform="translate(589.443 3866.268)" fill="#f2f2f2"/>
        <path id="Path_754" data-name="Path 754" d="M310.975,162.015V182.6L328.8,192.9,346.633,182.6V162.015L328.8,151.722Z" transform="translate(589.443 3866.268)" fill="#f2f2f2"/>
        <path id="Path_755" data-name="Path 755" d="M271.356,162.015V182.6L289.185,192.9,307.014,182.6V162.015l-17.829-10.293Z" transform="translate(589.443 3866.268)" fill="#f2f2f2"/>
        <path id="Path_756" data-name="Path 756" d="M231.736,162.015V182.6L249.565,192.9,267.393,182.6V162.015l-17.828-10.293Z" transform="translate(589.443 3866.268)" fill="#f2f2f2"/>
        <path id="Path_757" data-name="Path 757" d="M192.117,162.015V182.6L209.946,192.9,227.775,182.6V162.015l-17.829-10.293Z" transform="translate(589.443 3866.268)" fill="#f2f2f2"/>
        <path id="Path_758" data-name="Path 758" d="M152.5,162.015V182.6L170.326,192.9,188.155,182.6V162.015l-17.829-10.293Z" transform="translate(589.443 3866.268)" fill="#f2f2f2"/>
        <path id="Path_759" data-name="Path 759" d="M112.878,162.015V182.6L130.707,192.9,148.536,182.6V162.015l-17.829-10.293Z" transform="translate(589.443 3866.268)" fill="#f2f2f2"/>
        <path id="Path_760" data-name="Path 760" d="M73.259,162.015V182.6L91.088,192.9,108.917,182.6V162.015L91.088,151.722Z" transform="translate(589.443 3866.268)" fill="#f2f2f2"/>
        <path id="Path_761" data-name="Path 761" d="M57.43,189.453,69.3,182.6V162.016L57.43,155.164Z" transform="translate(589.443 3866.268)" fill="#f2f2f2"/>
        <path id="Path_762" data-name="Path 762" d="M845.837,127.7v20.587l11.93,6.887V120.817Z" transform="translate(589.443 3866.268)" fill="#f2f2f2"/>
        <path id="Path_763" data-name="Path 763" d="M806.218,127.7v20.587l17.829,10.293,17.829-10.293V127.7L824.047,117.41Z" transform="translate(589.443 3866.268)" fill="#f2f2f2"/>
        <path id="Path_764" data-name="Path 764" d="M766.6,127.7v20.587l17.829,10.293,17.828-10.293V127.7L784.427,117.41Z" transform="translate(589.443 3866.268)" fill="#f2f2f2"/>
        <path id="Path_765" data-name="Path 765" d="M726.979,127.7v20.587l17.829,10.293,17.829-10.293V127.7L744.808,117.41Z" transform="translate(589.443 3866.268)" fill="#f2f2f2"/>
        <path id="Path_766" data-name="Path 766" d="M687.359,127.7v20.587l17.829,10.293,17.829-10.293V127.7L705.188,117.41Z" transform="translate(589.443 3866.268)" fill="#f2f2f2"/>
        <path id="Path_767" data-name="Path 767" d="M647.74,127.7v20.587l17.829,10.293L683.4,148.291V127.7L665.569,117.41Z" transform="translate(589.443 3866.268)" fill="#f2f2f2"/>
        <path id="Path_768" data-name="Path 768" d="M608.121,127.7v20.587l17.829,10.293,17.829-10.293V127.7L625.95,117.41Z" transform="translate(589.443 3866.268)" fill="#f2f2f2"/>
        <path id="Path_769" data-name="Path 769" d="M568.5,127.7v20.587l17.829,10.293,17.828-10.293V127.7L586.33,117.41Z" transform="translate(589.443 3866.268)" fill="#f2f2f2"/>
        <path id="Path_770" data-name="Path 770" d="M528.882,127.7v20.587l17.829,10.293,17.829-10.293V127.7L546.711,117.41Z" transform="translate(589.443 3866.268)" fill="#f2f2f2"/>
        <path id="Path_771" data-name="Path 771" d="M489.262,127.7v20.587l17.829,10.293,17.829-10.293V127.7L507.091,117.41Z" transform="translate(589.443 3866.268)" fill="#f2f2f2"/>
        <path id="Path_772" data-name="Path 772" d="M449.643,127.7v20.587l17.829,10.293L485.3,148.291V127.7L467.472,117.41Z" transform="translate(589.443 3866.268)" fill="#f2f2f2"/>
        <path id="Path_773" data-name="Path 773" d="M410.024,127.7v20.587l17.829,10.293,17.829-10.293V127.7L427.853,117.41Z" transform="translate(589.443 3866.268)" fill="#f2f2f2"/>
        <path id="Path_774" data-name="Path 774" d="M370.4,127.7v20.587l17.829,10.293,17.829-10.293V127.7L388.233,117.41Z" transform="translate(589.443 3866.268)" fill="#f2f2f2"/>
        <path id="Path_775" data-name="Path 775" d="M330.785,127.7v20.587l17.829,10.293,17.828-10.293V127.7L348.614,117.41Z" transform="translate(589.443 3866.268)" fill="#f2f2f2"/>
        <path id="Path_776" data-name="Path 776" d="M291.165,127.7v20.587l17.829,10.293,17.829-10.293V127.7L308.994,117.41Z" transform="translate(589.443 3866.268)" fill="#f2f2f2"/>
        <path id="Path_777" data-name="Path 777" d="M251.546,127.7v20.587l17.829,10.293L287.2,148.291V127.7L269.375,117.41Z" transform="translate(589.443 3866.268)" fill="#f2f2f2"/>
        <path id="Path_778" data-name="Path 778" d="M211.927,127.7v20.587l17.829,10.293,17.829-10.293V127.7L229.756,117.41Z" transform="translate(589.443 3866.268)" fill="#f2f2f2"/>
        <path id="Path_779" data-name="Path 779" d="M172.307,127.7v20.587l17.829,10.293,17.829-10.293V127.7L190.136,117.41Z" transform="translate(589.443 3866.268)" fill="#f2f2f2"/>
        <path id="Path_780" data-name="Path 780" d="M132.688,127.7v20.587l17.829,10.293,17.828-10.293V127.7L150.517,117.41Z" transform="translate(589.443 3866.268)" fill="#f2f2f2"/>
        <path id="Path_781" data-name="Path 781" d="M93.068,127.7v20.587L110.9,158.584l17.829-10.293V127.7L110.9,117.41Z" transform="translate(589.443 3866.268)" fill="#f2f2f2"/>
        <path id="Path_782" data-name="Path 782" d="M57.43,125.406v25.183l13.847,7.995,17.829-10.293V127.7L71.277,117.411Z" transform="translate(589.443 3866.268)" fill="#f2f2f2"/>
        <path id="Path_783" data-name="Path 783" d="M826.027,93.392v20.587l17.829,10.294,13.91-8.032V91.13L843.856,83.1Z" transform="translate(589.443 3866.268)" fill="#f2f2f2"/>
        <path id="Path_784" data-name="Path 784" d="M786.408,93.392v20.587l17.829,10.293,17.828-10.293V93.392L804.237,83.1Z" transform="translate(589.443 3866.268)" fill="#f2f2f2"/>
        <path id="Path_785" data-name="Path 785" d="M746.789,93.392v20.587l17.829,10.293,17.828-10.293V93.392L764.618,83.1Z" transform="translate(589.443 3866.268)" fill="#f2f2f2"/>
        <path id="Path_786" data-name="Path 786" d="M707.169,93.392v20.587L725,124.272l17.828-10.293V93.392L725,83.1Z" transform="translate(589.443 3866.268)" fill="#f2f2f2"/>
        <path id="Path_787" data-name="Path 787" d="M667.55,93.392v20.587l17.829,10.293,17.828-10.293V93.392L685.379,83.1Z" transform="translate(589.443 3866.268)" fill="#f2f2f2"/>
        <path id="Path_788" data-name="Path 788" d="M627.93,93.392v20.587l17.829,10.293,17.828-10.293V93.392L645.759,83.1Z" transform="translate(589.443 3866.268)" fill="#f2f2f2"/>
        <path id="Path_789" data-name="Path 789" d="M588.311,93.392v20.587l17.829,10.293,17.829-10.293V93.392L606.14,83.1Z" transform="translate(589.443 3866.268)" fill="#f2f2f2"/>
        <path id="Path_790" data-name="Path 790" d="M548.692,93.392v20.587l17.829,10.293,17.828-10.293V93.392L566.521,83.1Z" transform="translate(589.443 3866.268)" fill="#f2f2f2"/>
        <path id="Path_791" data-name="Path 791" d="M509.072,93.392v20.587L526.9,124.272l17.829-10.293V93.392L526.9,83.1Z" transform="translate(589.443 3866.268)" fill="#f2f2f2"/>
        <path id="Path_792" data-name="Path 792" d="M469.453,93.392v20.587l17.829,10.293,17.829-10.293V93.392L487.282,83.1Z" transform="translate(589.443 3866.268)" fill="#f2f2f2"/>
        <path id="Path_793" data-name="Path 793" d="M429.833,93.392v20.587l17.829,10.293,17.828-10.293V93.392L447.662,83.1Z" transform="translate(589.443 3866.268)" fill="#f2f2f2"/>
        <path id="Path_794" data-name="Path 794" d="M390.214,93.392v20.587l17.829,10.293,17.829-10.293V93.392L408.043,83.1Z" transform="translate(589.443 3866.268)" fill="#f2f2f2"/>
        <path id="Path_795" data-name="Path 795" d="M350.595,93.392v20.587l17.829,10.293,17.828-10.293V93.392L368.424,83.1Z" transform="translate(589.443 3866.268)" fill="#f2f2f2"/>
        <path id="Path_796" data-name="Path 796" d="M310.975,93.392v20.587L328.8,124.272l17.829-10.293V93.392L328.8,83.1Z" transform="translate(589.443 3866.268)" fill="#f2f2f2"/>
        <path id="Path_797" data-name="Path 797" d="M271.356,93.392v20.587l17.829,10.293,17.829-10.293V93.392L289.185,83.1Z" transform="translate(589.443 3866.268)" fill="#f2f2f2"/>
        <path id="Path_798" data-name="Path 798" d="M231.736,93.392v20.587l17.829,10.293,17.828-10.293V93.392L249.565,83.1Z" transform="translate(589.443 3866.268)" fill="#f2f2f2"/>
        <path id="Path_799" data-name="Path 799" d="M192.117,93.392v20.587l17.829,10.293,17.829-10.293V93.392L209.946,83.1Z" transform="translate(589.443 3866.268)" fill="#f2f2f2"/>
        <path id="Path_800" data-name="Path 800" d="M152.5,93.392v20.587l17.829,10.293,17.829-10.293V93.392L170.326,83.1Z" transform="translate(589.443 3866.268)" fill="#f2f2f2"/>
        <path id="Path_801" data-name="Path 801" d="M112.878,93.392v20.587l17.829,10.293,17.829-10.293V93.392L130.707,83.1Z" transform="translate(589.443 3866.268)" fill="#f2f2f2"/>
        <path id="Path_802" data-name="Path 802" d="M73.259,93.392v20.587l17.829,10.293,17.829-10.293V93.392L91.088,83.1Z" transform="translate(589.443 3866.268)" fill="#f2f2f2"/>
        <path id="Path_803" data-name="Path 803" d="M57.43,120.831,69.3,113.979V93.393L57.43,86.541Z" transform="translate(589.443 3866.268)" fill="#f2f2f2"/>
        <path id="Path_804" data-name="Path 804" d="M845.837,59.081V79.668l11.93,6.888V52.194Z" transform="translate(589.443 3866.268)" fill="#f2f2f2"/>
        <path id="Path_805" data-name="Path 805" d="M822.409,49.732l-16.192,9.348V79.668l17.829,10.293,17.829-10.293V59.081l-16.192-9.348Z" transform="translate(589.443 3866.268)" fill="#f2f2f2"/>
        <path id="Path_806" data-name="Path 806" d="M782.79,49.732,766.6,59.081V79.668l17.828,10.293,17.829-10.293V59.081l-16.192-9.348Z" transform="translate(589.443 3866.268)" fill="#f2f2f2"/>
        <path id="Path_807" data-name="Path 807" d="M743.171,49.732l-16.192,9.348V79.668l17.829,10.293,17.829-10.293V59.081l-16.192-9.348Z" transform="translate(589.443 3866.268)" fill="#f2f2f2"/>
        <path id="Path_808" data-name="Path 808" d="M703.551,49.732,687.36,59.081V79.668l17.828,10.293,17.829-10.293V59.081l-16.192-9.348Z" transform="translate(589.443 3866.268)" fill="#f2f2f2"/>
        <path id="Path_809" data-name="Path 809" d="M663.932,49.732,647.74,59.081V79.668l17.829,10.293L683.4,79.668V59.081l-16.191-9.348Z" transform="translate(589.443 3866.268)" fill="#f2f2f2"/>
        <path id="Path_810" data-name="Path 810" d="M624.312,49.732l-16.191,9.348V79.668l17.828,10.293,17.829-10.293V59.081l-16.192-9.348Z" transform="translate(589.443 3866.268)" fill="#f2f2f2"/>
        <path id="Path_811" data-name="Path 811" d="M584.693,49.732,568.5,59.081V79.668L586.33,89.961l17.828-10.293V59.081l-16.191-9.348Z" transform="translate(589.443 3866.268)" fill="#f2f2f2"/>
        <path id="Path_812" data-name="Path 812" d="M545.074,49.732l-16.191,9.348V79.668l17.828,10.293L564.54,79.668V59.081l-16.192-9.348Z" transform="translate(589.443 3866.268)" fill="#f2f2f2"/>
        <path id="Path_813" data-name="Path 813" d="M505.455,49.732l-16.192,9.348V79.668l17.829,10.293L524.92,79.668V59.081l-16.191-9.348Z" transform="translate(589.443 3866.268)" fill="#f2f2f2"/>
        <path id="Path_814" data-name="Path 814" d="M465.835,49.732l-16.192,9.348V79.668l17.829,10.293L485.3,79.668V59.081l-16.192-9.348Z" transform="translate(589.443 3866.268)" fill="#f2f2f2"/>
        <path id="Path_815" data-name="Path 815" d="M426.216,49.732l-16.192,9.348V79.668l17.829,10.293,17.828-10.293V59.081L429.49,49.732Z" transform="translate(589.443 3866.268)" fill="#f2f2f2"/>
        <path id="Path_816" data-name="Path 816" d="M386.6,49.732,370.4,59.081V79.668l17.829,10.293,17.829-10.293V59.081L389.87,49.732Z" transform="translate(589.443 3866.268)" fill="#f2f2f2"/>
        <path id="Path_817" data-name="Path 817" d="M346.976,49.732l-16.191,9.348V79.668l17.828,10.293,17.829-10.293V59.081L350.25,49.732Z" transform="translate(589.443 3866.268)" fill="#f2f2f2"/>
        <path id="Path_818" data-name="Path 818" d="M307.358,49.732l-16.192,9.348V79.668l17.829,10.293,17.829-10.293V59.081l-16.192-9.348Z" transform="translate(589.443 3866.268)" fill="#f2f2f2"/>
        <path id="Path_819" data-name="Path 819" d="M267.738,49.732l-16.191,9.348V79.668l17.828,10.293L287.2,79.668V59.081l-16.192-9.348Z" transform="translate(589.443 3866.268)" fill="#f2f2f2"/>
        <path id="Path_820" data-name="Path 820" d="M228.119,49.732l-16.192,9.348V79.668l17.829,10.293,17.828-10.293V59.081l-16.191-9.348Z" transform="translate(589.443 3866.268)" fill="#f2f2f2"/>
        <path id="Path_821" data-name="Path 821" d="M188.5,49.732l-16.192,9.348V79.668l17.829,10.293,17.829-10.293V59.081l-16.192-9.348Z" transform="translate(589.443 3866.268)" fill="#f2f2f2"/>
        <path id="Path_822" data-name="Path 822" d="M148.88,49.732l-16.192,9.348V79.668l17.829,10.293,17.828-10.293V59.081l-16.191-9.348Z" transform="translate(589.443 3866.268)" fill="#f2f2f2"/>
        <path id="Path_823" data-name="Path 823" d="M109.26,49.732,93.068,59.081V79.668L110.9,89.961l17.829-10.293V59.081l-16.192-9.348Z" transform="translate(589.443 3866.268)" fill="#f2f2f2"/>
        <path id="Path_824" data-name="Path 824" d="M69.641,49.732,57.43,56.783V81.966l13.848,7.995L89.106,79.668V59.081L72.914,49.732Z" transform="translate(589.443 3866.268)" fill="#f2f2f2"/>
        <path id="Path_825" data-name="Path 825" d="M833.607,49.732l10.25,5.918,10.249-5.918Z" transform="translate(589.443 3866.268)" fill="#f2f2f2"/>
        <path id="Path_826" data-name="Path 826" d="M793.987,49.732l10.249,5.918,10.25-5.918Z" transform="translate(589.443 3866.268)" fill="#f2f2f2"/>
        <path id="Path_827" data-name="Path 827" d="M754.368,49.732l10.25,5.918,10.249-5.918Z" transform="translate(589.443 3866.268)" fill="#f2f2f2"/>
        <path id="Path_828" data-name="Path 828" d="M714.748,49.732,725,55.651l10.25-5.918Z" transform="translate(589.443 3866.268)" fill="#f2f2f2"/>
        <path id="Path_829" data-name="Path 829" d="M675.129,49.732l10.25,5.918,10.249-5.918Z" transform="translate(589.443 3866.268)" fill="#f2f2f2"/>
        <path id="Path_830" data-name="Path 830" d="M635.509,49.732l10.25,5.918,10.249-5.918Z" transform="translate(589.443 3866.268)" fill="#f2f2f2"/>
        <path id="Path_831" data-name="Path 831" d="M595.89,49.732l10.25,5.918,10.249-5.918Z" transform="translate(589.443 3866.268)" fill="#f2f2f2"/>
        <path id="Path_832" data-name="Path 832" d="M556.271,49.732l10.25,5.918,10.249-5.918Z" transform="translate(589.443 3866.268)" fill="#f2f2f2"/>
        <path id="Path_833" data-name="Path 833" d="M516.651,49.732,526.9,55.651l10.25-5.918Z" transform="translate(589.443 3866.268)" fill="#f2f2f2"/>
        <path id="Path_834" data-name="Path 834" d="M477.032,49.732l10.25,5.918,10.249-5.918Z" transform="translate(589.443 3866.268)" fill="#f2f2f2"/>
        <path id="Path_835" data-name="Path 835" d="M437.413,49.732l10.249,5.918,10.25-5.918Z" transform="translate(589.443 3866.268)" fill="#f2f2f2"/>
        <path id="Path_836" data-name="Path 836" d="M397.793,49.732l10.25,5.918,10.249-5.918Z" transform="translate(589.443 3866.268)" fill="#f2f2f2"/>
        <path id="Path_837" data-name="Path 837" d="M358.174,49.732l10.249,5.918,10.25-5.918Z" transform="translate(589.443 3866.268)" fill="#f2f2f2"/>
        <path id="Path_838" data-name="Path 838" d="M318.555,49.732l10.25,5.918,10.249-5.918Z" transform="translate(589.443 3866.268)" fill="#f2f2f2"/>
        <path id="Path_839" data-name="Path 839" d="M278.935,49.732l10.25,5.918,10.249-5.918Z" transform="translate(589.443 3866.268)" fill="#f2f2f2"/>
        <path id="Path_840" data-name="Path 840" d="M239.316,49.732l10.25,5.918,10.249-5.918Z" transform="translate(589.443 3866.268)" fill="#f2f2f2"/>
        <path id="Path_841" data-name="Path 841" d="M199.7,49.732l10.25,5.918,10.249-5.918Z" transform="translate(589.443 3866.268)" fill="#f2f2f2"/>
        <path id="Path_842" data-name="Path 842" d="M160.077,49.732l10.249,5.918,10.25-5.918Z" transform="translate(589.443 3866.268)" fill="#f2f2f2"/>
        <path id="Path_843" data-name="Path 843" d="M120.457,49.732l10.25,5.918,10.249-5.918Z" transform="translate(589.443 3866.268)" fill="#f2f2f2"/>
        <path id="Path_844" data-name="Path 844" d="M80.838,49.732l10.249,5.918,10.25-5.918Z" transform="translate(589.443 3866.268)" fill="#f2f2f2"/>
        <path id="Path_845" data-name="Path 845" d="M57.43,49.732v2.476l4.288-2.476Z" transform="translate(589.443 3866.268)" fill="#f2f2f2"/>
      </g>
      <rect id="Rectangle_574" data-name="Rectangle 574" width="800" height="498" transform="translate(3.831 7125.256)" fill="url(#linear-gradient)"/>
      <rect id="Rectangle_573" data-name="Rectangle 573" width="800" height="498" transform="translate(3.831 7125.256)" fill="url(#linear-gradient-2)"/>
    </g>
  </g>
</svg>
