<svg xmlns="http://www.w3.org/2000/svg" width="1921" height="79.051" viewBox="0 0 1921 79.051">
  <path id="Union_8" data-name="Union 8" d="M959.5,0H0V58.395a1.645,1.645,0,0,1,.182.01L144.34,74.558c4.909-.839,65.625-11.081,89.744-8.205,11.46,1.366,20.7,3.158,30.482,5.055,11.223,2.178,22.822,4.427,38.087,5.968,4.648.47,9.47.671,14.288.675h.279c23.984-.017,47.893-4.874,50.859-5.724.707-.2,2.585-.741,87.491-2.018,43.288-.651,87.653-1.183,89.52-1.206.746-.006,74.338-.645,98.9-1.459,12.11-.4,28.933-1.566,46.742-2.8,28.077-1.943,59.9-4.145,79.394-3.7C834.7,62.608,957,58.2,958.225,58.151h.04a1.7,1.7,0,0,1,.232.009l1,.113v.112l.5-.056.5.056v-.112l1-.113a1.7,1.7,0,0,1,.232-.009h.039c1.228.044,123.523,4.456,188.1,2.992,19.492-.442,51.316,1.76,79.394,3.7,17.81,1.232,34.632,2.4,46.743,2.8,24.564.814,98.156,1.453,98.9,1.459,1.867.022,46.233.554,89.521,1.206,84.905,1.277,86.783,1.816,87.491,2.018,2.966.85,26.875,5.708,50.859,5.724h.279c4.819,0,9.64-.205,14.289-.675,15.265-1.54,26.864-3.79,38.086-5.968,9.783-1.9,19.022-3.69,30.482-5.055,24.119-2.876,84.835,7.366,89.744,8.205L1919.818,58.4a1.658,1.658,0,0,1,.182-.01V0Z" transform="translate(0.5 0.5)" fill="#fff" stroke="rgba(0,0,0,0)" stroke-width="1"/>
</svg>
