<svg xmlns="http://www.w3.org/2000/svg" width="63.521" height="24.502" viewBox="0 0 63.521 24.502">
  <g id="Layer_x0020_1" transform="translate(0.216 -13.234)">
    <g id="_304534216" transform="translate(0 13.344)">
      <path id="_304534912" d="M45.916,32.958H17.292a.69.69,0,1,1,0-1.38H45.916a.69.69,0,0,1,0,1.38Zm14.121,0H55.272a.69.69,0,1,1,0-1.38h4.765c1.226,0,1.625-1.111,1.745-2.044.313-2.465-1.124-5.8-3.448-6.4-.855-.222-2.5-.5-4.237-.795-4.447-.753-7.673-1.343-8.674-2.083-8.615-6.362-23.9-7.371-32.707-2.161-.288.175-7,4.211-10.6,4.982a13.265,13.265,0,0,0-.03,8.5H7.937a.69.69,0,0,1,0,1.38H1.606a.69.69,0,0,1-.64-.434A14.325,14.325,0,0,1,.974,22.19a.691.691,0,0,1,.529-.405c3.213-.486,10.432-4.832,10.505-4.876,4.6-2.72,10.785-3.948,17.429-3.46,6.417.471,12.54,2.547,16.806,5.7.814.6,5.189,1.342,8.083,1.832,1.847.313,3.441.583,4.354.82,2.83.734,4.523,4.091,4.525,7.014v.016a7.074,7.074,0,0,1-.055.882c-.26,2.034-1.425,3.249-3.113,3.249Z" transform="translate(0 -13.344)" stroke="#000" stroke-width="0.2" fill-rule="evenodd"/>
      <path id="_304534816" d="M9.747,20.238H39.081a31.666,31.666,0,0,0-14.616-3.8,25.376,25.376,0,0,0-13.409,3.018l-.1.06c-.371.224-.776.469-1.21.726ZM41.4,21.618H7.123a.69.69,0,0,1-.324-1.3c1.314-.7,2.495-1.414,3.444-1.988l.1-.062A26.765,26.765,0,0,1,24.5,15.054c6.544.156,13.017,2.144,17.316,5.318a.69.69,0,0,1-.411,1.245Z" transform="translate(2.947 -12.566)" stroke="#000" stroke-width="0.2" fill-rule="evenodd"/>
      <path id="_304533880" d="M19.028,21.615a.69.69,0,0,1-.69-.69V15.741a.69.69,0,1,1,1.379,0v5.184a.69.69,0,0,1-.69.69Z" transform="translate(8.4 -12.563)" stroke="#000" stroke-width="0.2" fill-rule="evenodd"/>
      <path id="_304533808" d="M23.824,21.669h-2.84a.69.69,0,0,1,0-1.38h2.84a.69.69,0,0,1,0,1.38Z" transform="translate(9.295 -10.163)" stroke="#000" stroke-width="0.2" fill-rule="evenodd"/>
      <path id="_304534384" d="M12.163,21.669H9.323a.69.69,0,1,1,0-1.38h2.84a.69.69,0,1,1,0,1.38Z" transform="translate(3.954 -10.163)" stroke="#000" stroke-width="0.2" fill-rule="evenodd"/>
      <path id="_304534432" d="M36.387,24.022a3.988,3.988,0,1,0,3.988,3.988A3.993,3.993,0,0,0,36.387,24.022Zm0,9.356a5.368,5.368,0,1,1,5.368-5.368A5.375,5.375,0,0,1,36.387,33.377Z" transform="translate(14.208 -9.086)" stroke="#000" stroke-width="0.2" fill-rule="evenodd"/>
      <path id="_304534312" d="M35.571,25.8a1.393,1.393,0,1,0,1.392,1.393A1.4,1.4,0,0,0,35.571,25.8Zm0,4.166a2.773,2.773,0,1,1,2.772-2.773,2.776,2.776,0,0,1-2.772,2.773Z" transform="translate(15.023 -8.27)" stroke="#000" stroke-width="0.2" fill-rule="evenodd"/>
      <path id="_304534192" d="M10.337,24.022a3.988,3.988,0,1,0,3.988,3.988A3.992,3.992,0,0,0,10.337,24.022Zm0,9.356a5.368,5.368,0,1,1,5.368-5.368A5.374,5.374,0,0,1,10.337,33.377Z" transform="translate(2.277 -9.086)" stroke="#000" stroke-width="0.2" fill-rule="evenodd"/>
      <path id="_304533736" d="M9.522,25.8a1.393,1.393,0,1,0,1.392,1.393A1.4,1.4,0,0,0,9.522,25.8Zm0,4.166a2.773,2.773,0,1,1,2.772-2.773A2.777,2.777,0,0,1,9.522,29.967Z" transform="translate(3.092 -8.27)" stroke="#000" stroke-width="0.2" fill-rule="evenodd"/>
      <path id="_304533952" d="M42.833,24.611a4.136,4.136,0,0,1-1.79-.4c-2.461-1.168-3.39-4.472-3.429-4.612a.69.69,0,0,1,1.331-.365h0c.008.028.8,2.84,2.693,3.732a3.234,3.234,0,0,0,2.808-.114.69.69,0,0,1,.561,1.261,5.348,5.348,0,0,1-2.174.5Z" transform="translate(17.217 -10.881)" stroke="#000" stroke-width="0.2" fill-rule="evenodd"/>
      <path id="_304533712" d="M.743,24.376A.69.69,0,0,1,.673,23,4.182,4.182,0,0,0,3.8,21.549a3.158,3.158,0,0,0,.443-2.317.69.69,0,0,1,1.34-.327,4.525,4.525,0,0,1-.644,3.425A5.452,5.452,0,0,1,.817,24.372a.722.722,0,0,1-.073,0Z" transform="translate(0.025 -11.037)" stroke="#000" stroke-width="0.2" fill-rule="evenodd"/>
    </g>
  </g>
</svg>
