<svg xmlns="http://www.w3.org/2000/svg" width="52.143" height="51.362" viewBox="0 0 52.143 51.362">
  <path id="construction" d="M50.675,37.176H50.4v-1.7a1.419,1.419,0,0,0-1.417-1.417H47.544l-6.208-6.208a.782.782,0,0,0-.084-.071v-8.5h4.48a.769.769,0,0,0,.607-1.241l-3.075-3.954a.769.769,0,0,0-.607-.3H41.033l-25-9.924a.763.763,0,0,0-.075-.026l-.024-.006-.046-.011-.044-.006-.027,0-.054,0H13.834a.769.769,0,0,0-.766.7l-.811,9.277H7.07a1.842,1.842,0,0,0-1.838-1.793H1.841A1.843,1.843,0,0,0,0,13.832V19.34A1.843,1.843,0,0,0,1.841,21.18H5.232A1.843,1.843,0,0,0,7.073,19.34v-.063h4.878l-.913,30.365h-.7a2.755,2.755,0,0,0-2.751,2.751V54.4a.769.769,0,0,0,.769.769h1.38a.769.769,0,0,0,0-1.537H9.123V52.393a1.215,1.215,0,0,1,1.214-1.214h9.731a1.215,1.215,0,0,1,1.214,1.214v1.238H12.809a.769.769,0,0,0,0,1.537H22.05a.769.769,0,0,0,.769-.769V52.393a2.755,2.755,0,0,0-2.751-2.751H18.545l-.913-30.365h4.251v3.834A2,2,0,0,0,23.876,25.1h5.9a2,2,0,0,0,1.992-1.992V19.277h7.949v8.436a.768.768,0,0,0-.183.136l-6.208,6.208H31.779a1.419,1.419,0,0,0-1.417,1.417v1.7h-.716a1.469,1.469,0,0,0-1.467,1.467v1.446a1.469,1.469,0,0,0,1.467,1.467h2.063a.769.769,0,1,0,0-1.537H29.716V38.713H50.6v1.306H34.784a.769.769,0,1,0,0,1.537H50.675a1.469,1.469,0,0,0,1.467-1.467V38.643a1.469,1.469,0,0,0-1.467-1.467ZM14.539,5.343h.5l.738,8.442H13.8Zm-9,14a.3.3,0,0,1-.3.3H1.841a.3.3,0,0,1-.3-.3V13.832a.3.3,0,0,1,.3-.3H5.232a.3.3,0,0,1,.3.3V19.34Zm1.537-4.017h15.58a.769.769,0,1,0,0-1.537H17.322l-.7-8.036,20.246,8.036H25.727a.769.769,0,1,0,0,1.537H42.282l1.879,2.417H7.073V15.323ZM13.3,25.4l2.32,1.68L13.152,30.5Zm.133,16.011,3.2-4,.194,6.46Zm.238-9.019,2.7-3.73.175,5.813Zm-.625,1.446L15.886,35.9l-3.01,3.76Zm2.835,11.245-3.3,4.119.191-6.369ZM13.895,23.933l2.25-2.984.142,4.715Zm1.585-4.656-2.074,2.75.083-2.75ZM14.21,49.642l2.7-3.368.1,3.368ZM30.229,23.111a.455.455,0,0,1-.455.455h-5.9a.455.455,0,0,1-.455-.455V19.277h6.808ZM45.37,34.056H41.252V29.939Zm-5.655-4.217v4.217H35.5ZM31.9,35.594H48.863v1.582H31.9Z" transform="translate(0 -3.806)"/>
</svg>
