<svg xmlns="http://www.w3.org/2000/svg" width="40.604" height="41.104" viewBox="0 0 40.604 41.104">
  <path id="education" d="M42.106,37.485a4.333,4.333,0,0,1,0-2.178,1.816,1.816,0,0,0,.012-3.607,4.681,4.681,0,0,0,1.6-3.471A4.758,4.758,0,0,0,40.982,23.9a1.837,1.837,0,0,0-1.614-2.857,4.335,4.335,0,0,1,0-2.155c2.4.126,2.557-3.631.128-3.631H35.107L33.389,9.477l8.235-2.163a1.473,1.473,0,0,0,0-2.831L25.647.287a8.79,8.79,0,0,0-4.458,0L15.249,1.848a.6.6,0,0,0,.306,1.165L21.5,1.452a7.585,7.585,0,0,1,3.846,0l15.977,4.2a.259.259,0,0,1,0,.5l-12.3,3.23L25.152,5.87V4.476a1.793,1.793,0,0,0-3.585,0V6.187a.6.6,0,0,0,.287.513,2.818,2.818,0,0,0,2.637.2l3.141,2.848-2.291.6a7.585,7.585,0,0,1-3.846,0L5.518,6.149a.259.259,0,0,1,0-.5l6.989-1.836A.6.6,0,0,0,12.2,2.648L5.212,4.484a1.473,1.473,0,0,0,0,2.831l8.235,2.163-1.718,5.784H10.278a4.707,4.707,0,0,0-3.187,8.213H4.932a1.816,1.816,0,0,0-.2,3.619,4.326,4.326,0,0,1,0,2.178,1.816,1.816,0,0,0-.012,3.607A4.7,4.7,0,0,0,7.824,41.1H41.9a1.816,1.816,0,0,0,.2-3.62ZM23.948,5.817a1.593,1.593,0,0,1-1.177,0V4.476a.588.588,0,0,1,1.177,0ZM39.012,27.1a1.078,1.078,0,0,1,0,2.155H13.8V27.1ZM12.594,34.352l-1.66.871V27.1h1.66ZM9.73,29.26H5.968a5.536,5.536,0,0,0,0-2.155H9.73Zm.291,7.473a.6.6,0,0,0,.591.018l2.733-1.434H40.868a5.55,5.55,0,0,0,0,2.155H7.824a1.078,1.078,0,0,1,0-2.155H9.73v.9a.6.6,0,0,0,.291.515ZM38.133,21.047h-27.9a1.078,1.078,0,0,1,0-2.155h16.31c-.015.429-.013,1.058.592,1.058H30.6c.607,0,.607-.629.592-1.058h6.94a5.55,5.55,0,0,0,0,2.155ZM28.868,14.72c.531,0,1.036,1.883,1.119,4.025H27.75c.083-2.142.588-4.025,1.119-4.025Zm11.239,2.356a.612.612,0,0,1-.611.611H31.114c-.04-.409-.092-.818-.165-1.222H39.5a.612.612,0,0,1,.611.611Zm-6.257-1.815h-3.2a2.562,2.562,0,0,0-1.178-1.614v-3.14l2.754-.723ZM14.612,9.783l6.577,1.728a8.824,8.824,0,0,0,4.458,0l2.619-.688v2.824a2.561,2.561,0,0,0-1.178,1.614h-14.1ZM7.744,22.434a3.48,3.48,0,0,1-1.015-2.5,3.538,3.538,0,0,1,3.549-3.47H26.788c-.073.4-.126.813-.165,1.222H10.233a2.282,2.282,0,0,0,0,4.564H39.5a.612.612,0,0,1,0,1.222H10.233a3.479,3.479,0,0,1-2.489-1.04ZM4.32,25.289a.612.612,0,0,1,.611-.611h34.08a3.5,3.5,0,1,1-.045,7.009H35.809a.6.6,0,0,0,0,1.2h6.1a.611.611,0,0,1,0,1.222H13.8V32.891H32.635a.6.6,0,0,0,0-1.2H13.8V30.464H39.012a2.282,2.282,0,0,0,0-4.564H4.932a.612.612,0,0,1-.611-.611Zm.611,6.4a.611.611,0,0,1,0-1.222h4.8v1.222ZM41.9,39.9H7.824a3.508,3.508,0,0,1-3.5-3.539,3.538,3.538,0,0,1,3.549-3.47H9.73v1.222H7.824a2.282,2.282,0,0,0,0,4.564H41.9A.611.611,0,0,1,41.9,39.9Z" transform="translate(-3.116 0)" fill="#fff"/>
</svg>
