<svg id="fb" xmlns="http://www.w3.org/2000/svg" width="31.929" height="31.929" viewBox="0 0 31.929 31.929">
  <g>
    <path d="M15.964,0A15.964,15.964,0,1,0,31.929,15.964,15.964,15.964,0,0,0,15.964,0Zm4.541,10.39c0,.3-.126.42-.42.42-.565,0-1.13,0-1.693.023s-.87.279-.87.868c-.013.63,0,1.248,0,1.891h2.418c.344,0,.462.118.462.464v2.533c0,.342-.109.45-.456.452H17.5v6.835c0,.365-.113.481-.475.481H14.4c-.317,0-.441-.124-.441-.441V17.05H11.868c-.328,0-.445-.12-.445-.45V14.053c0-.328.124-.452.447-.452h2.086V11.763A4.6,4.6,0,0,1,14.53,9.4a3.468,3.468,0,0,1,1.876-1.559,4.6,4.6,0,0,1,1.607-.277h2.065c.3,0,.42.13.42.42.011.809.011,1.609.008,2.407Z" fill="#fff"/>
  </g>
</svg>
