<svg xmlns="http://www.w3.org/2000/svg" width="60.89" height="60.888" viewBox="0 0 60.89 60.888">
  <g id="gardening" transform="translate(0 -0.008)">
    <g id="Group_1108" data-name="Group 1108" transform="translate(0 0.008)">
      <path id="Path_4362" data-name="Path 4362" d="M59.991,328.659H53.658a5.631,5.631,0,0,0-4.128-2.826,5.662,5.662,0,0,0-1.574-1.221c0-1.49.009-3.745.074-6.126l.079,0a7.851,7.851,0,0,0,7.439-5.11,1.9,1.9,0,0,0-.017-1.241,1.941,1.941,0,0,0-2.3-1.231,10.746,10.746,0,0,0-4.987,2.944,51.723,51.723,0,0,1,.694-6.051.9.9,0,0,0-1.767-.338c-.146.763-.273,1.621-.387,2.558a10.591,10.591,0,0,0-5.469-3.506,1.938,1.938,0,0,0-2.3,1.231A1.9,1.9,0,0,0,39,308.985a7.85,7.85,0,0,0,7.428,5.107c-.066,1.057-.12,2.184-.162,3.4-.082,2.443-.1,4.837-.1,6.526a5.5,5.5,0,0,0-3.09.4,6.971,6.971,0,0,0-6.837,1.036,5.613,5.613,0,0,0-5.1-1.357c0-1.621.015-3.553.073-5.617l.079,0a7.851,7.851,0,0,0,7.439-5.11,1.9,1.9,0,0,0-.017-1.241,1.941,1.941,0,0,0-2.3-1.228,10.746,10.746,0,0,0-4.987,2.944,51.721,51.721,0,0,1,.694-6.051.9.9,0,0,0-1.767-.338c-.146.763-.273,1.621-.387,2.558a10.591,10.591,0,0,0-5.469-3.506,1.939,1.939,0,0,0-2.3,1.231,1.9,1.9,0,0,0-.017,1.241,7.85,7.85,0,0,0,7.425,5.108c-.066,1.057-.12,2.184-.162,3.4-.084,2.466-.1,4.788-.1,6.676a6.908,6.908,0,0,0-5.411.85,5.635,5.635,0,0,0-5.55-.6,6.945,6.945,0,0,0-4.07-.29c0-1.627.015-3.572.073-5.648l.079,0a7.851,7.851,0,0,0,7.439-5.11,1.9,1.9,0,0,0-.017-1.241,1.941,1.941,0,0,0-2.3-1.228,10.746,10.746,0,0,0-4.987,2.944,51.72,51.72,0,0,1,.694-6.051.9.9,0,0,0-1.767-.338c-.146.763-.273,1.621-.387,2.558a10.591,10.591,0,0,0-5.469-3.506,1.939,1.939,0,0,0-2.3,1.231,1.9,1.9,0,0,0-.017,1.241,7.85,7.85,0,0,0,7.428,5.108c-.066,1.057-.12,2.184-.162,3.4-.094,2.745-.1,5.407-.1,7.324a7.006,7.006,0,0,0-2.264,1.953,5.041,5.041,0,0,0-2.932,1.886H.9a.9.9,0,0,0,0,1.8H59.991a.9.9,0,0,0,0-1.8ZM40.7,308.4a.142.142,0,0,1,.01-.065.134.134,0,0,1,.122-.092.108.108,0,0,1,.028,0c.422.11,3.812,1.079,5.249,4.03A6.092,6.092,0,0,1,40.7,308.4Zm12.984,4.24a.1.1,0,0,1,.028,0,.133.133,0,0,1,.122.092.153.153,0,0,1,.01.063,6.091,6.091,0,0,1-5.411,3.879c1.438-2.953,4.828-3.919,5.25-4.03ZM23.873,308.4a.142.142,0,0,1,.01-.065.134.134,0,0,1,.122-.092.108.108,0,0,1,.028,0c.422.11,3.812,1.079,5.249,4.03a6.092,6.092,0,0,1-5.41-3.877Zm-16.828,0a.142.142,0,0,1,.01-.065.134.134,0,0,1,.122-.092.108.108,0,0,1,.028,0c.422.11,3.812,1.079,5.249,4.03A6.092,6.092,0,0,1,7.044,308.4Zm12.984,4.24a.1.1,0,0,1,.028,0,.133.133,0,0,1,.122.092.153.153,0,0,1,.01.063,6.091,6.091,0,0,1-5.411,3.879c1.438-2.953,4.828-3.919,5.25-4.03Zm16.828,0a.1.1,0,0,1,.028,0,.133.133,0,0,1,.122.092.153.153,0,0,1,.01.063,6.091,6.091,0,0,1-5.411,3.879c1.438-2.953,4.828-3.919,5.25-4.03ZM10.188,328.659a3.283,3.283,0,0,1,.7-.179.9.9,0,0,0,.623-.393,5.2,5.2,0,0,1,6.513-1.863.9.9,0,0,0,.8-.025,3.837,3.837,0,0,1,4.441.6.9.9,0,0,0,1.168.054,5.172,5.172,0,0,1,5.36-.633.9.9,0,0,0,.768-.013l.038-.016a3.854,3.854,0,0,1,4.841,1.045.9.9,0,0,0,.6.338l.092.012a.9.9,0,0,0,.714-.267,5.177,5.177,0,0,1,5.88-1.1.9.9,0,0,0,.8-.025,3.854,3.854,0,0,1,4.85,1.041.9.9,0,0,0,.644.343,3.838,3.838,0,0,1,2.408,1.076Z" transform="translate(0 -269.568)" fill="#fff"/>
      <path id="Path_4363" data-name="Path 4363" d="M4.609,18.146l14.434,8.947a.9.9,0,0,0,1.238-.29l.018-.031,4.4-7.755,7.608.171-.013.085A.9.9,0,0,0,33.04,20.3h0a.923.923,0,0,0,.139.011.9.9,0,0,0,.888-.762l.945-6.093a.9.9,0,1,0-1.772-.308c0,.01,0,.021,0,.032l-.026.168-4.751-.971,1.644-2.9A.9.9,0,0,0,29.8,8.266L16.694.144A.9.9,0,0,0,15.475.4l-.617.911A7.057,7.057,0,0,0,6.982,12.968l-2.644,3.91a.9.9,0,0,0,.24,1.248l.031.02ZM19.2,25.072,6.352,17.111l.719-1.065,12.758,7.907ZM9.552,6.317A2.183,2.183,0,0,1,12.1,5.4L9.749,8.872a2.18,2.18,0,0,1-.2-2.553Zm23.38,8.807-.294,1.9-.055.375L25.7,17.24l1.824-3.22Zm-16.451-13L28.113,9.338l-7.4,13.051L8.08,14.555l.9-1.329c.006-.01,7.5-11.1,7.5-11.1ZM6.281,8.675A5.263,5.263,0,0,1,13.85,2.809l-.723,1.07A3.981,3.981,0,0,0,8.716,10.4l-.724,1.071A5.2,5.2,0,0,1,6.281,8.675Z" transform="translate(-3.68 -0.008)" fill="#fff"/>
      <path id="Path_4364" data-name="Path 4364" d="M146.48,102.941a.9.9,0,0,0,1.225-.338h0l1.49-2.626a.9.9,0,1,0-1.546-.918l-.018.032-1.49,2.626a.9.9,0,0,0,.338,1.226Z" transform="translate(-128.448 -86.748)" fill="#fff"/>
      <path id="Path_4365" data-name="Path 4365" d="M264.932,152.242a.9.9,0,0,0,.9-.89v-.009a1,1,0,0,0-.015-.175c-.015-.057-.031-.113-.051-.17a1.08,1.08,0,0,0-.082-.154,1.021,1.021,0,0,0-.113-.139.936.936,0,0,0-1.274,0,.714.714,0,0,0-.108.139.754.754,0,0,0-.087.154c-.021.057-.036.113-.051.17a1,1,0,0,0-.015.175.9.9,0,0,0,.89.9Z" transform="translate(-232.252 -132.347)" fill="#fff"/>
      <path id="Path_4366" data-name="Path 4366" d="M298.927,178.711a.9.9,0,1,0-.653-.283.885.885,0,0,0,.652.283Z" transform="translate(-262.157 -155.619)" fill="#fff"/>
      <path id="Path_4367" data-name="Path 4367" d="M323.561,214.262a.9.9,0,0,0,.807-1.3v.005a.9.9,0,1,0-.807,1.295Z" transform="translate(-283.831 -186.905)" fill="#fff"/>
      <path id="Path_4368" data-name="Path 4368" d="M337.02,253.631a1.466,1.466,0,0,0-.154-.082c-.057-.021-.113-.036-.17-.051a.9.9,0,0,0-1.074.884,1,1,0,0,0,.015.175c.015.057.031.113.051.17a.92.92,0,0,0,.087.154.73.73,0,0,0,.108.139.925.925,0,0,0,.637.262,1,1,0,0,0,.175-.015c.057-.015.113-.031.17-.051a.919.919,0,0,0,.154-.087.709.709,0,0,0,.247-.247.911.911,0,0,0,.087-.154c.021-.057.036-.113.051-.17a1,1,0,0,0,.015-.175.925.925,0,0,0-.262-.637A1.007,1.007,0,0,0,337.02,253.631Z" transform="translate(-295.224 -222.97)" fill="#fff"/>
      <path id="Path_4369" data-name="Path 4369" d="M269.48,122.9a.9.9,0,1,0-.175-1.783c-.057.015-.113.031-.17.051a.919.919,0,0,0-.154.087.731.731,0,0,0-.139.108.9.9,0,0,0,.637,1.536Z" transform="translate(-236.25 -106.525)" fill="#fff"/>
      <path id="Path_4370" data-name="Path 4370" d="M305.186,130.321a.935.935,0,0,0,.288.046.9.9,0,1,0-.288-.046Z" transform="translate(-267.912 -113.097)" fill="#fff"/>
      <path id="Path_4371" data-name="Path 4371" d="M366.3,170.362a.9.9,0,1,0-.668-.3.885.885,0,0,0,.668.3Z" transform="translate(-321.417 -148.267)" fill="#fff"/>
      <path id="Path_4372" data-name="Path 4372" d="M387.048,200.645a.874.874,0,0,0,.406-.1.9.9,0,1,0-.406.1Z" transform="translate(-339.667 -174.911)" fill="#fff"/>
      <path id="Path_4373" data-name="Path 4373" d="M337.983,146.3a.856.856,0,0,0,.493.149.9.9,0,1,0-.5-.156Z" transform="translate(-296.943 -127.246)" fill="#fff"/>
      <path id="Path_4374" data-name="Path 4374" d="M400.766,233.566a1,1,0,0,0,.015.175c.015.057.031.113.051.17a1.469,1.469,0,0,0,.082.154,1.026,1.026,0,0,0,.113.139.9.9,0,0,0,1.536-.637,1,1,0,0,0-.015-.175c-.015-.057-.031-.113-.051-.17a.918.918,0,0,0-.087-.154.709.709,0,0,0-.247-.247.909.909,0,0,0-.154-.087c-.057-.021-.113-.036-.17-.051a.925.925,0,0,0-.812.247,1.023,1.023,0,0,0-.113.139,1.466,1.466,0,0,0-.082.154c-.021.057-.036.113-.051.17A1.009,1.009,0,0,0,400.766,233.566Z" transform="translate(-352.527 -204.662)" fill="#fff"/>
    </g>
  </g>
</svg>
