<svg xmlns="http://www.w3.org/2000/svg" width="44.205" height="44.205" viewBox="0 0 44.205 44.205">
  <g id="house" transform="translate(-1 -1)">
    <path id="Path_4405" data-name="Path 4405" d="M20.963,1H3.852a.713.713,0,0,0-.713.713V40.927H1.713A.713.713,0,0,0,1,41.64v2.852a.713.713,0,0,0,.713.713H44.492a.713.713,0,0,0,.713-.713V41.64a.713.713,0,0,0-.713-.713H43.066V1.713A.713.713,0,0,0,42.353,1H25.241a.713.713,0,0,0-.713.713V8.13H21.676V1.713A.713.713,0,0,0,20.963,1Zm.713,39.927v-5.7h2.852v5.7Zm2.852-7.13H21.676v-7.13h2.852Zm0-8.556H21.676v-7.13h2.852ZM4.565,2.426H20.25v38.5H18.825V33.084a.713.713,0,0,0-.713-.713H6.7a.713.713,0,0,0-.713.713v7.843H4.565Zm2.852,38.5V33.8h4.278v7.13Zm5.7-7.13H17.4v7.13H13.121Zm30.658,9.982H2.426V42.353H43.779Zm-4.991-2.852H34.51V33.8h4.278Zm-5.7,0H28.806V33.8h4.278Zm8.556-38.5v38.5H40.214V33.084a.713.713,0,0,0-.713-.713H28.093a.713.713,0,0,0-.713.713v7.843H25.954V2.426ZM24.528,9.556v7.13H21.676V9.556Z" fill="#fff"/>
    <path id="Path_4406" data-name="Path 4406" d="M8.713,9.278h4.278a.713.713,0,0,0,.713-.713V5.713A.713.713,0,0,0,12.991,5H8.713A.713.713,0,0,0,8,5.713V8.565A.713.713,0,0,0,8.713,9.278Zm.713-2.852h2.852V7.852H9.426Z" transform="translate(-2.009 -1.148)" fill="#fff"/>
    <path id="Path_4407" data-name="Path 4407" d="M18.713,9.278h4.278a.713.713,0,0,0,.713-.713V5.713A.713.713,0,0,0,22.991,5H18.713A.713.713,0,0,0,18,5.713V8.565A.713.713,0,0,0,18.713,9.278Zm.713-2.852h2.852V7.852H19.426Z" transform="translate(-4.879 -1.148)" fill="#fff"/>
    <path id="Path_4408" data-name="Path 4408" d="M8.713,19.278h4.278a.713.713,0,0,0,.713-.713V15.713A.713.713,0,0,0,12.991,15H8.713A.713.713,0,0,0,8,15.713v2.852A.713.713,0,0,0,8.713,19.278Zm.713-2.852h2.852v1.426H9.426Z" transform="translate(-2.009 -4.018)" fill="#fff"/>
    <path id="Path_4409" data-name="Path 4409" d="M18.713,19.278h4.278a.713.713,0,0,0,.713-.713V15.713A.713.713,0,0,0,22.991,15H18.713a.713.713,0,0,0-.713.713v2.852A.713.713,0,0,0,18.713,19.278Zm.713-2.852h2.852v1.426H19.426Z" transform="translate(-4.879 -4.018)" fill="#fff"/>
    <path id="Path_4410" data-name="Path 4410" d="M8.713,29.278h4.278a.713.713,0,0,0,.713-.713V25.713A.713.713,0,0,0,12.991,25H8.713A.713.713,0,0,0,8,25.713v2.852A.713.713,0,0,0,8.713,29.278Zm.713-2.852h2.852v1.426H9.426Z" transform="translate(-2.009 -6.888)" fill="#fff"/>
    <path id="Path_4411" data-name="Path 4411" d="M18.713,29.278h4.278a.713.713,0,0,0,.713-.713V25.713A.713.713,0,0,0,22.991,25H18.713a.713.713,0,0,0-.713.713v2.852A.713.713,0,0,0,18.713,29.278Zm.713-2.852h2.852v1.426H19.426Z" transform="translate(-4.879 -6.888)" fill="#fff"/>
    <path id="Path_4412" data-name="Path 4412" d="M8.713,39.278h4.278a.713.713,0,0,0,.713-.713V35.713A.713.713,0,0,0,12.991,35H8.713A.713.713,0,0,0,8,35.713v2.852A.713.713,0,0,0,8.713,39.278Zm.713-2.852h2.852v1.426H9.426Z" transform="translate(-2.009 -9.759)" fill="#fff"/>
    <path id="Path_4413" data-name="Path 4413" d="M18.713,39.278h4.278a.713.713,0,0,0,.713-.713V35.713A.713.713,0,0,0,22.991,35H18.713a.713.713,0,0,0-.713.713v2.852A.713.713,0,0,0,18.713,39.278Zm.713-2.852h2.852v1.426H19.426Z" transform="translate(-4.879 -9.759)" fill="#fff"/>
    <path id="Path_4414" data-name="Path 4414" d="M38.713,9.278h4.278a.713.713,0,0,0,.713-.713V5.713A.713.713,0,0,0,42.991,5H38.713A.713.713,0,0,0,38,5.713V8.565A.713.713,0,0,0,38.713,9.278Zm.713-2.852h2.852V7.852H39.426Z" transform="translate(-10.62 -1.148)" fill="#fff"/>
    <path id="Path_4415" data-name="Path 4415" d="M48.713,9.278h4.278a.713.713,0,0,0,.713-.713V5.713A.713.713,0,0,0,52.991,5H48.713A.713.713,0,0,0,48,5.713V8.565A.713.713,0,0,0,48.713,9.278Zm.713-2.852h2.852V7.852H49.426Z" transform="translate(-13.49 -1.148)" fill="#fff"/>
    <path id="Path_4416" data-name="Path 4416" d="M38.713,19.278h4.278a.713.713,0,0,0,.713-.713V15.713A.713.713,0,0,0,42.991,15H38.713a.713.713,0,0,0-.713.713v2.852A.713.713,0,0,0,38.713,19.278Zm.713-2.852h2.852v1.426H39.426Z" transform="translate(-10.62 -4.018)" fill="#fff"/>
    <path id="Path_4417" data-name="Path 4417" d="M48.713,19.278h4.278a.713.713,0,0,0,.713-.713V15.713A.713.713,0,0,0,52.991,15H48.713a.713.713,0,0,0-.713.713v2.852A.713.713,0,0,0,48.713,19.278Zm.713-2.852h2.852v1.426H49.426Z" transform="translate(-13.49 -4.018)" fill="#fff"/>
    <path id="Path_4418" data-name="Path 4418" d="M38.713,29.278h4.278a.713.713,0,0,0,.713-.713V25.713A.713.713,0,0,0,42.991,25H38.713a.713.713,0,0,0-.713.713v2.852A.713.713,0,0,0,38.713,29.278Zm.713-2.852h2.852v1.426H39.426Z" transform="translate(-10.62 -6.888)" fill="#fff"/>
    <path id="Path_4419" data-name="Path 4419" d="M48.713,29.278h4.278a.713.713,0,0,0,.713-.713V25.713A.713.713,0,0,0,52.991,25H48.713a.713.713,0,0,0-.713.713v2.852A.713.713,0,0,0,48.713,29.278Zm.713-2.852h2.852v1.426H49.426Z" transform="translate(-13.49 -6.888)" fill="#fff"/>
    <path id="Path_4420" data-name="Path 4420" d="M38.713,39.278h4.278a.713.713,0,0,0,.713-.713V35.713A.713.713,0,0,0,42.991,35H38.713a.713.713,0,0,0-.713.713v2.852A.713.713,0,0,0,38.713,39.278Zm.713-2.852h2.852v1.426H39.426Z" transform="translate(-10.62 -9.759)" fill="#fff"/>
    <path id="Path_4421" data-name="Path 4421" d="M48.713,39.278h4.278a.713.713,0,0,0,.713-.713V35.713A.713.713,0,0,0,52.991,35H48.713a.713.713,0,0,0-.713.713v2.852A.713.713,0,0,0,48.713,39.278Zm.713-2.852h2.852v1.426H49.426Z" transform="translate(-13.49 -9.759)" fill="#fff"/>
  </g>
</svg>
