<svg xmlns="http://www.w3.org/2000/svg" width="20.558" height="20.558" viewBox="0 0 20.558 20.558">
  <g id="Layer_2" data-name="Layer 2" transform="translate(0)">
    <g id="message" transform="translate(0)">
      <path id="Path_13471" data-name="Path 13471" d="M10.279,0A10.279,10.279,0,1,0,20.558,10.279,10.279,10.279,0,0,0,10.279,0ZM5.858,6.311H14.7a1.193,1.193,0,0,1,.781.289L10.3,9.757,5.461,6.379a1.2,1.2,0,0,1,.4-.067ZM15.9,13.046a1.2,1.2,0,0,1-1.2,1.2H5.858a1.2,1.2,0,0,1-1.2-1.2V7.512a1.191,1.191,0,0,1,.126-.535l5.244,3.664a.438.438,0,0,0,.479.015l5.386-3.276a1.221,1.221,0,0,1,.008.134Z"/>
    </g>
  </g>
</svg>
