<svg xmlns="http://www.w3.org/2000/svg" width="52.283" height="47.38" viewBox="0 0 52.283 47.38">
  <path id="map" d="M42.985,53.38a1.655,1.655,0,0,1-.7-.147,12,12,0,0,1-2.585-1.78c-.865-.724-1.631-1.866-2.778-2.155a1.984,1.984,0,0,0-.721-.082c-.081.6-.219,1.164-.845,1.4-1,.384-1.6-.543-1.881-.988-.065-.1-.157-.245-.222-.324h-.018a2.793,2.793,0,0,0-1.569.818c-.048.066-.171.248-.472.719a.869.869,0,0,1-.762.492H28.78a.827.827,0,0,1-.807-.944c.051-.326.109-.725.126-.888a5.608,5.608,0,0,0-.157-.695.511.511,0,0,0-.181-.078c-.012,0-.08.117-.089.13a2.348,2.348,0,0,1-2.618.98,2.682,2.682,0,0,1-1.611-1.953,4.245,4.245,0,0,0-1.437-2.443,1.828,1.828,0,0,0-1.345-.112,2.693,2.693,0,0,1-2.338-.689,2.168,2.168,0,0,1-.317-2.04c-.113-.151-.331-.42-.74-.87a.734.734,0,0,0-1-.184c-.223.164.24.723.345.845a.828.828,0,0,1-.619,1.35A2.13,2.13,0,0,0,14.245,44.9a.827.827,0,0,1-1.531-.236,3.91,3.91,0,0,0-1.613-2.6.832.832,0,0,1-.087-1.422,3.02,3.02,0,0,0,.655-.581,7.259,7.259,0,0,0-2.686-.312.817.817,0,0,1-.817-.817c0-.289-.122-.755-.306-.847-.159-.079-.694-.02-1.7.709a.817.817,0,0,1-.48.156H4.033a.817.817,0,0,1-.63-1.337c.651-.792,1.6-2.383,1.378-3.278-.044-.178-.16-.438-.649-.64a.818.818,0,0,1-.5-.755,3.033,3.033,0,0,0-.576-1.81.817.817,0,0,1-.131-1.008,5.1,5.1,0,0,0,.513-3.574A4.87,4.87,0,0,0,.768,23.678a.829.829,0,0,1-.191-1.311c.735-.714,2.778-3.1,2.528-4.649a1.612,1.612,0,0,0-.94-1.15,2.41,2.41,0,0,1-1.93-1.115c-.459-.843-.245-1.963.637-3.33a.817.817,0,0,1,1.255-.144c.446.43.956.08,1.261-.313a.818.818,0,0,1,.593-.315l6.061-.391a5.442,5.442,0,0,0,1.973-1.647,2.674,2.674,0,0,1,2.33-1.16.819.819,0,0,1,.177.02,7.789,7.789,0,0,0,2.2-1.437.818.818,0,0,1,.276-.146c.761-.231,4.639-1.3,6.23.182a2.329,2.329,0,0,1,.577,2.38c-.091.4.778.787,1.061.849.914.2,1.809-.4,2.618-.731a4.412,4.412,0,0,1,2.362-.083,70.479,70.479,0,0,0,10.474.939c1.227-.01,2.433-.267,3.652-.372a4.945,4.945,0,0,1,3.818,1.3,4.084,4.084,0,0,1,.768,3.661,5.077,5.077,0,0,0,.3,2.58c.333.956,1.01,1.749,1.338,2.711a7,7,0,0,1,.421,3.787,2.3,2.3,0,0,1-1.38,1.552,3.163,3.163,0,0,1-1.4,3.448,1.479,1.479,0,0,0-.558.995c-.083.63.111,1.735,1.512,3.432a.817.817,0,0,1,.154.751,2.387,2.387,0,0,0,.11,1.664c.293.46.812.355,1.21.622.472.316,2.012,1.443,2.012,2.677A1.888,1.888,0,0,1,51.03,40.8a1.828,1.828,0,0,1-.2.494,2.727,2.727,0,0,1-1.807,1.178l-4.918,5.863a16.851,16.851,0,0,1,.517,3.486,1.606,1.606,0,0,1-.765,1.323,1.7,1.7,0,0,1-.874.24ZM36.32,47.574a5.37,5.37,0,0,1,3.693,1.941,11.137,11.137,0,0,0,2.958,2.236,16.277,16.277,0,0,0-.546-3.426.817.817,0,0,1,.166-.727l5.362-6.392a.818.818,0,0,1,.47-.277c.608-.118.913-.313,1-.456.008-.014.037-.074.037-.074a.817.817,0,0,1,.772-1.083c.42-.014.42-.262.42-.381a3.36,3.36,0,0,0-1.156-1.228,2.733,2.733,0,0,1-1.817-1.2,3.722,3.722,0,0,1-.391-2.556c-1.272-1.636-1.814-3.13-1.61-4.447a3.039,3.039,0,0,1,1.183-2.012c1.262-.989.821-1.816.654-2.047a.838.838,0,0,1,.319-1.235c1.112-.5,1.138-.592,1.216-.862a5.54,5.54,0,0,0-.4-2.809c-.326-.954-1-1.746-1.335-2.7a6.672,6.672,0,0,1-.364-3.42,2.573,2.573,0,0,0-.374-2.263,3.341,3.341,0,0,0-2.467-.767c-1.263.111-2.511.372-3.783.378a73.776,73.776,0,0,1-10.714-.955,3.293,3.293,0,0,0-1.983.183,5.018,5.018,0,0,1-3.115.61c-1.207-.264-2.622-1.425-2.3-2.811.137-.6-.04-.766-.1-.821-.647-.6-3-.281-4.494.144-1.666,1.328-2.739,1.865-3.426,1.683a1.109,1.109,0,0,0-.851.476,6.526,6.526,0,0,1-2.869,2.275.821.821,0,0,1-.2.038l-5.843.377a2.5,2.5,0,0,1-1.648.85,2.262,2.262,0,0,1-.916-.129c-.246.519-.272.848-.2.989.189.355.764.209,1.07.358A3.252,3.252,0,0,1,4.719,17.46c.316,1.97-1.282,4.161-2.281,5.309a5.98,5.98,0,0,1,2.573,3.35,6.514,6.514,0,0,1-.425,4.323,4.691,4.691,0,0,1,.645,1.983,2.446,2.446,0,0,1,1.136,1.517,4.724,4.724,0,0,1-.7,3.213c1.185-.753,2.148-.924,2.934-.524a2.227,2.227,0,0,1,1.088,1.5c2.257.074,3.356.522,3.633,1.46a1.787,1.787,0,0,1-.547,1.7,5.293,5.293,0,0,1,1.068,1.6,3.741,3.741,0,0,1,.875-.5,2.074,2.074,0,0,1-.132-.958,1.7,1.7,0,0,1,.715-1.2,2.343,2.343,0,0,1,3.154.385c1.15,1.263,1.371,1.667,1.2,2.177s-.129.741-.082.8a1.183,1.183,0,0,0,.8.132,3.14,3.14,0,0,1,2.545.361,5.951,5.951,0,0,1,2.135,3.5,1.038,1.038,0,0,0,.552.713c.315.11.633-.226.789-.459a1.455,1.455,0,0,1,1.624-.732,1.986,1.986,0,0,1,1.662,1.935,2.255,2.255,0,0,1,.045.658h.263a4.435,4.435,0,0,1,.5-.705,3.97,3.97,0,0,1,3.2-1.278,1.692,1.692,0,0,1,1.019.8,1.344,1.344,0,0,1,.639-.725,2.073,2.073,0,0,1,.982-.221ZM14.911,8.382l0,0Zm0,0v0Zm0,0h0Zm0,0h0Zm0,0h0Z" transform="translate(0 -6)"/>
</svg>
