<svg xmlns="http://www.w3.org/2000/svg" width="51.335" height="51.136" viewBox="0 0 51.335 51.136">
  <g id="motorway" transform="translate(0 -0.994)">
    <path id="Path_4394" data-name="Path 4394" d="M180.8,143.822a.748.748,0,0,0-.807.686l-.163,2.017a.749.749,0,0,0,.686.807l.061,0a.749.749,0,0,0,.745-.688l.163-2.016A.749.749,0,0,0,180.8,143.822Z" transform="translate(-161.798 -128.505)" fill="#fff"/>
    <path id="Path_4395" data-name="Path 4395" d="M185.628,93.848a.775.775,0,0,0-.824.669l-.08,1a.78.78,0,0,0,.7.824l.061,0a.749.749,0,0,0,.745-.688l.08-1A.749.749,0,0,0,185.628,93.848Z" transform="translate(-166.202 -83.542)" fill="#fff"/>
    <path id="Path_4396" data-name="Path 4396" d="M317.107,144.508a.749.749,0,0,0-1.492.121l.163,2.017a.749.749,0,0,0,.745.688l.061,0a.749.749,0,0,0,.686-.807Z" transform="translate(-283.968 -128.505)" fill="#fff"/>
    <path id="Path_4397" data-name="Path 4397" d="M312.448,96.166a.749.749,0,0,0,.686-.807l-.08-1a.749.749,0,0,0-1.492.121l.08,1a.749.749,0,0,0,.745.688Z" transform="translate(-280.32 -83.389)" fill="#fff"/>
    <path id="Path_4398" data-name="Path 4398" d="M156.523,446.353l-.08.995a.749.749,0,0,0,.686.807l.061,0a.749.749,0,0,0,.745-.688l.08-.995a.749.749,0,1,0-1.492-.121Z" transform="translate(-140.755 -400.086)" fill="#fff"/>
    <path id="Path_4399" data-name="Path 4399" d="M160.659,386.018l-.163,2.016a.749.749,0,0,0,.686.806l.061,0a.749.749,0,0,0,.745-.688l.163-2.016a.749.749,0,0,0-1.492-.121Z" transform="translate(-144.402 -345.801)" fill="#fff"/>
    <path id="Path_4400" data-name="Path 4400" d="M166.119,328.51a.749.749,0,0,0,.745-.688l.163-2.016a.749.749,0,0,0-1.492-.121l-.163,2.016a.749.749,0,0,0,.686.807Z" transform="translate(-148.789 -291.517)" fill="#fff"/>
    <path id="Path_4401" data-name="Path 4401" d="M341.66,446.353a.749.749,0,1,0-1.492.121l.08.995a.749.749,0,0,0,.746.688l.061,0a.749.749,0,0,0,.686-.807Z" transform="translate(-306.059 -400.086)" fill="#fff"/>
    <path id="Path_4402" data-name="Path 4402" d="M331.214,328.336a.749.749,0,0,0,.686-.807l-.163-2.016a.749.749,0,0,0-1.492.121l.163,2.016a.749.749,0,0,0,.745.688Z" transform="translate(-297.131 -291.362)" fill="#fff"/>
    <path id="Path_4403" data-name="Path 4403" d="M336.259,388.84a.731.731,0,0,0,.669-.824L336.765,386a.72.72,0,0,0-.789-.669.749.749,0,0,0-.686.807l.163,2.016a.749.749,0,0,0,.745.688Z" transform="translate(-301.67 -345.8)" fill="#fff"/>
    <path id="Path_4404" data-name="Path 4404" d="M50.062,20.485H39.355L37.542,7.708h5.926a1.275,1.275,0,0,0,1.273-1.273V2.267A1.275,1.275,0,0,0,43.468.994H7.867A1.274,1.274,0,0,0,6.594,2.267V6.435A1.275,1.275,0,0,0,7.867,7.708h5.927L11.98,20.485H1.273A1.275,1.275,0,0,0,0,21.758v6.075a1.275,1.275,0,0,0,1.273,1.273H2.62v6.7a1.024,1.024,0,0,0,1.023,1.023H6.984A1.025,1.025,0,0,0,8.007,35.81v-6.7h2.748L7.609,51.276a.749.749,0,0,0,.741.854h2.542a.749.749,0,0,0,0-1.5H9.212l3.056-21.526h4.869l-.082,1.012a.749.749,0,0,0,.686.807l.061,0a.749.749,0,0,0,.745-.688l.092-1.133h4.407V50.632H14.32a.749.749,0,0,0,0,1.5h9.475a.749.749,0,0,0,.749-.749V29.106h2.249V51.381a.749.749,0,0,0,.749.749H42.985a.749.749,0,0,0,.741-.854l-3.147-22.17h2.748v6.7a1.024,1.024,0,0,0,1.023,1.023h3.341a1.025,1.025,0,0,0,1.023-1.023v-6.7h1.347a1.275,1.275,0,0,0,1.273-1.273V21.758a1.275,1.275,0,0,0-1.273-1.273Zm-12.219,0H28.289V15.669a.749.749,0,0,0-1.5,0v4.816H24.543V7.708h2.249v4.456a.749.749,0,0,0,1.5,0V7.708h7.74ZM8.091,6.21V2.491H43.244V6.21Zm7.215,1.5h7.74V20.484H13.492ZM42.123,50.632H28.289V29.106H32.7l.092,1.133a.749.749,0,0,0,.745.688l.061,0a.749.749,0,0,0,.686-.807L34.2,29.106h4.869Zm7.715-23.024H47.966a.749.749,0,0,0-.749.749v6.979H44.825V28.357a.749.749,0,0,0-.749-.749H7.259a.749.749,0,0,0-.749.749v6.979H4.117V28.357a.749.749,0,0,0-.749-.749H1.5V21.982h48.34Z" transform="translate(0 0)" fill="#fff"/>
  </g>
</svg>
