<svg id="parking" xmlns="http://www.w3.org/2000/svg" width="47.979" height="47.979" viewBox="0 0 47.979 47.979">
  <g id="Group_1456" data-name="Group 1456" transform="translate(15.725 28.903)">
    <g id="Group_1455" data-name="Group 1455">
      <path id="Path_12505" data-name="Path 12505" d="M183.652,308.428H168.492a.684.684,0,1,0,0,1.367h15.161a.684.684,0,1,0,0-1.367Z" transform="translate(-167.808 -308.428)" fill="#fff"/>
    </g>
  </g>
  <g id="Group_1458" data-name="Group 1458" transform="translate(5.224 10.88)">
    <g id="Group_1457" data-name="Group 1457">
      <path id="Path_12506" data-name="Path 12506" d="M91.782,123.571H89.749a1.506,1.506,0,0,0-.887.289l-1.782-5.617a3.051,3.051,0,0,0-2.918-2.136H64.867a3.051,3.051,0,0,0-2.918,2.136l-1.779,5.6a1.506,1.506,0,0,0-.871-.278H57.265a1.517,1.517,0,0,0-1.516,1.516v1.022a1.517,1.517,0,0,0,1.516,1.516h.824a4.7,4.7,0,0,0-.691,2.457v5.434a2.539,2.539,0,0,0,1.754,2.412h0v2.266a2.136,2.136,0,0,0,2.133,2.133h2.149a2.136,2.136,0,0,0,2.133-2.133v-2.142H83.459v2.142a2.136,2.136,0,0,0,2.133,2.133h2.149a2.136,2.136,0,0,0,2.133-2.133v-2.266a2.539,2.539,0,0,0,1.754-2.412v-5.434a4.7,4.7,0,0,0-.691-2.458h.843a1.517,1.517,0,0,0,1.516-1.516v-1.022A1.517,1.517,0,0,0,91.782,123.571Zm-28.531-4.914a1.689,1.689,0,0,1,1.615-1.182H84.161a1.689,1.689,0,0,1,1.615,1.182l2.163,6.815q-.1-.022-.2-.04l-.049-.009-.145-.022-.083-.011-.123-.013-.121-.009-.094-.006c-.074,0-.148-.006-.222-.006H62.124c-.074,0-.148,0-.222.006l-.094.006-.121.009-.123.013-.083.011-.144.022-.049.009q-.1.018-.2.04Zm-1.676,8.112.066-.01.1-.013.106-.01.079-.006c.064,0,.129-.006.193-.006H86.9c.065,0,.129,0,.193.006l.079.006.106.01.1.013.066.01a3.333,3.333,0,0,1,1.07.371,6.07,6.07,0,0,1-4.912,2.517H65.417a6.07,6.07,0,0,1-4.912-2.517A3.333,3.333,0,0,1,61.575,126.769Zm-4.31-.512a.149.149,0,0,1-.149-.149v-1.022a.149.149,0,0,1,.149-.149H59.3a.149.149,0,0,1,.149.149v1.022a.144.144,0,0,1,0,.026l-.012.037a.148.148,0,0,1-.134.086ZM64.2,140.193h0a.767.767,0,0,1-.766.766H61.286a.767.767,0,0,1-.766-.766v-2.142H64.2Zm24.307,0a.767.767,0,0,1-.766.766H85.593a.767.767,0,0,1-.766-.766v-2.142h3.682Zm1.754-4.677a1.169,1.169,0,0,1-1.168,1.168H59.933a1.169,1.169,0,0,1-1.168-1.168v-5.434a3.341,3.341,0,0,1,.7-2.049,7.44,7.44,0,0,0,5.951,2.991H83.611a7.44,7.44,0,0,0,5.951-2.991,3.341,3.341,0,0,1,.7,2.049Zm1.668-9.407a.149.149,0,0,1-.149.149H89.749a.149.149,0,0,1-.149-.149v-1.022a.149.149,0,0,1,.149-.149h2.033a.149.149,0,0,1,.149.149Z" transform="translate(-55.749 -116.108)" fill="#fff"/>
    </g>
  </g>
  <g id="Group_1460" data-name="Group 1460" transform="translate(9.112 25.616)">
    <g id="Group_1459" data-name="Group 1459">
      <path id="Path_12507" data-name="Path 12507" d="M103.069,276.728l-.506-1.743a1.14,1.14,0,0,0-.8-.782l-3.1-.81a1.135,1.135,0,0,0-1.412,1.251l.235,1.722a1.129,1.129,0,0,0,.853.949l3.368.831a1.159,1.159,0,0,0,.277.034,1.136,1.136,0,0,0,1.085-1.452Zm-4.249-.7-.167-1.222,2.633.689.357,1.23Z" transform="translate(-97.241 -273.357)" fill="#fff"/>
    </g>
  </g>
  <g id="Group_1462" data-name="Group 1462" transform="translate(32.992 25.616)">
    <g id="Group_1461" data-name="Group 1461">
      <path id="Path_12508" data-name="Path 12508" d="M357.563,273.64a1.132,1.132,0,0,0-1.04-.249l-3.1.81a1.14,1.14,0,0,0-.8.782l-.506,1.743a1.136,1.136,0,0,0,1.085,1.452,1.158,1.158,0,0,0,.277-.034l3.368-.831a1.129,1.129,0,0,0,.853-.949l.235-1.722A1.133,1.133,0,0,0,357.563,273.64Zm-1.2,2.384-2.824.7.357-1.23,2.633-.689Z" transform="translate(-352.072 -273.354)" fill="#fff"/>
    </g>
  </g>
  <g id="Group_1464" data-name="Group 1464">
    <g id="Group_1463" data-name="Group 1463">
      <path id="Path_12509" data-name="Path 12509" d="M41.078,0H6.9A6.909,6.909,0,0,0,0,6.9V21.753a.684.684,0,0,0,1.367,0V6.9A5.54,5.54,0,0,1,6.9,1.367H41.078A5.54,5.54,0,0,1,46.612,6.9V21.753a.684.684,0,1,0,1.367,0V6.9A6.909,6.909,0,0,0,41.078,0Z" fill="#fff"/>
    </g>
  </g>
  <g id="Group_1466" data-name="Group 1466" transform="translate(0 25.531)">
    <g id="Group_1465" data-name="Group 1465">
      <path id="Path_12510" data-name="Path 12510" d="M47.3,272.454a.684.684,0,0,0-.684.684V288a5.54,5.54,0,0,1-5.534,5.534H6.9A5.54,5.54,0,0,1,1.367,288V273.145a.684.684,0,1,0-1.367,0V288a6.909,6.909,0,0,0,6.9,6.9H41.078a6.909,6.909,0,0,0,6.9-6.9V273.138A.683.683,0,0,0,47.3,272.454Z" transform="translate(0 -272.454)" fill="#fff"/>
    </g>
  </g>
  <g id="Group_1468" data-name="Group 1468" transform="translate(3.392 3.392)">
    <g id="Group_1467" data-name="Group 1467">
      <path id="Path_12511" data-name="Path 12511" d="M74.1,36.193H39.481a3.293,3.293,0,0,0-3.289,3.289V74.1a3.293,3.293,0,0,0,3.289,3.289H74.1A3.293,3.293,0,0,0,77.388,74.1V39.482A3.292,3.292,0,0,0,74.1,36.193ZM76.021,74.1A1.924,1.924,0,0,1,74.1,76.022H39.481A1.924,1.924,0,0,1,37.559,74.1V39.482a1.924,1.924,0,0,1,1.922-1.922H74.1a1.924,1.924,0,0,1,1.922,1.922V74.1Z" transform="translate(-36.192 -36.193)" fill="#fff"/>
    </g>
  </g>
  <g id="Group_1470" data-name="Group 1470" transform="translate(21.722 26.76)">
    <g id="Group_1469" data-name="Group 1469">
      <path id="Path_12512" data-name="Path 12512" d="M242.109,285.564H232.49a.684.684,0,1,0,0,1.367h9.619a.684.684,0,1,0,0-1.367Z" transform="translate(-231.806 -285.564)" fill="#fff"/>
    </g>
  </g>
  <g id="Group_1472" data-name="Group 1472" transform="translate(15.24 26.76)">
    <g id="Group_1471" data-name="Group 1471">
      <path id="Path_12513" data-name="Path 12513" d="M165.339,285.564h-2.024a.684.684,0,0,0,0,1.367h2.024a.684.684,0,1,0,0-1.367Z" transform="translate(-162.631 -285.564)" fill="#fff"/>
    </g>
  </g>
</svg>
