<svg id="park" xmlns="http://www.w3.org/2000/svg" width="55.088" height="55.087" viewBox="0 0 55.088 55.087">
  <path id="Path_12514" data-name="Path 12514" d="M.807,53.492a.808.808,0,0,0,0,1.614H54.281a.808.808,0,0,0,0-1.614H53.259v-2.4a.807.807,0,0,0-.807-.807H51.107v-2.4a.807.807,0,0,0-.807-.807H49.009V37.244a.8.8,0,0,0,.058-.192,5.719,5.719,0,0,1,5.263-4.766.807.807,0,0,0-.1-1.611,7.229,7.229,0,0,0-5.223,2.7V29.716a3.152,3.152,0,0,0,2.34-3.042V23.259h.583a.819.819,0,0,0,.571-1.378L50.162,19.54a2.771,2.771,0,0,0-3.912,0L43.9,21.88a.818.818,0,0,0,.57,1.378h.583v3.416a3.152,3.152,0,0,0,2.34,3.042v5.472a5.1,5.1,0,0,0-4.312-.261,6.277,6.277,0,0,0-9.7-2.967,4.328,4.328,0,0,0-4.1-1.232,4.659,4.659,0,0,0-3.723-3.25,4.627,4.627,0,0,0-5.126,3.2,6.136,6.136,0,0,0-4.5.072V21.27a7.97,7.97,0,0,0-9.815-7.748.808.808,0,0,0,.374,1.57,6.356,6.356,0,0,1,7.827,6.178V32.762a6.359,6.359,0,0,1-5.481,6.289V33.769h0V28.555L12,25.387c.714-.714-.395-1.888-1.141-1.141L8.833,26.272V20.73a.808.808,0,0,0-1.614,0V31.82L5.24,29.841c-.714-.714-1.888.395-1.141,1.141L7.219,34.1v4.964a6.358,6.358,0,0,1-5.605-6.305V21.27a6.322,6.322,0,0,1,1.757-4.385c.7-.73-.438-1.878-1.167-1.115A7.928,7.928,0,0,0,0,21.27V32.762A7.974,7.974,0,0,0,7.219,40.69v12.8Zm28.458-2.321a.808.808,0,0,0,0-1.614H15.4V47.9H39.685v1.658H33.569a.808.808,0,0,0,0,1.614h2.5v2.321H19.022V51.171ZM17.857,42.993V39.8H37.231v3.19Zm14.1,1.614v1.678h-8.82V44.607Zm19.691,8.885H44.759V51.9h6.886Zm-2.152-3.2H46.911V48.7h2.582Zm-2.1-29.607a1.155,1.155,0,0,1,1.631,0l.963.963h-3.56Zm-.721,5.994V23.258h3.066v3.416a1.533,1.533,0,1,1-3.066,0Zm-37.836,14a7.975,7.975,0,0,0,7.1-7.916v-.21l0,0a4.52,4.52,0,0,1,4.679.007c.8.486,1.164-.369,1.257-.968a3.011,3.011,0,0,1,3.437-2.515,3.028,3.028,0,0,1,2.544,2.783.814.814,0,0,0,1.171.668,2.712,2.712,0,0,1,3.553,1.022.814.814,0,0,0,1.266.151,4.658,4.658,0,0,1,7.913,2.544.814.814,0,0,0,1.25.541,3.5,3.5,0,0,1,4.393.382v9.916H46.1a.807.807,0,0,0-.807.807v2.4H43.952a.807.807,0,0,0-.807.807v2.4H37.68V51.171h2.813a.807.807,0,0,0,.807-.807V47.092a.807.807,0,0,0-.807-.807H33.568V44.607h4.47a.807.807,0,0,0,.807-.807V39a.807.807,0,0,0-.807-.807H17.05a.807.807,0,0,0-.807.807v4.8a.807.807,0,0,0,.807.807h4.47v1.678H14.6a.807.807,0,0,0-.807.807v3.272a.807.807,0,0,0,.807.807h2.813v2.321H8.833Z" transform="translate(0 -11.874)" fill="#000"/>
  <path id="Path_12515" data-name="Path 12515" d="M296.514,8.8a4.4,4.4,0,1,0-4.4-4.4A4.4,4.4,0,0,0,296.514,8.8Zm0-7.184A2.785,2.785,0,1,1,293.729,4.4a2.788,2.788,0,0,1,2.785-2.785Z" transform="translate(-260.685)" fill="#000"/>
  <path id="Path_12516" data-name="Path 12516" d="M467.955,438.75h-3.631a.808.808,0,0,0,0,1.614h3.631A.808.808,0,0,0,467.955,438.75Z" transform="translate(-413.675 -391.544)" fill="#000"/>
  <path id="Path_12517" data-name="Path 12517" d="M46.478,438.75H1.074a.808.808,0,0,0,0,1.614h45.4A.808.808,0,0,0,46.478,438.75Z" transform="translate(-0.267 -391.544)" fill="#000"/>
  <path id="Path_12518" data-name="Path 12518" d="M16.831,467.876a.807.807,0,0,0,0,1.614A.807.807,0,0,0,16.831,467.876Z" transform="translate(-14.324 -417.536)" fill="#000"/>
  <path id="Path_12519" data-name="Path 12519" d="M63.372,497a.807.807,0,0,0,0,1.614A.807.807,0,0,0,63.372,497Z" transform="translate(-55.858 -443.526)" fill="#000"/>
  <path id="Path_12520" data-name="Path 12520" d="M109.912,467.876a.807.807,0,0,0,0,1.614A.807.807,0,0,0,109.912,467.876Z" transform="translate(-97.39 -417.536)" fill="#000"/>
  <path id="Path_12521" data-name="Path 12521" d="M156.452,497a.807.807,0,0,0,0,1.614A.807.807,0,0,0,156.452,497Z" transform="translate(-138.924 -443.526)" fill="#000"/>
  <path id="Path_12522" data-name="Path 12522" d="M202.994,467.876a.807.807,0,0,0,0,1.614A.807.807,0,0,0,202.994,467.876Z" transform="translate(-180.457 -417.536)" fill="#000"/>
  <path id="Path_12523" data-name="Path 12523" d="M249.534,497a.807.807,0,0,0,0,1.614A.807.807,0,0,0,249.534,497Z" transform="translate(-221.991 -443.526)" fill="#000"/>
  <path id="Path_12524" data-name="Path 12524" d="M296.076,467.876a.807.807,0,0,0,0,1.614A.807.807,0,0,0,296.076,467.876Z" transform="translate(-263.524 -417.536)" fill="#000"/>
  <path id="Path_12525" data-name="Path 12525" d="M342.617,497a.807.807,0,0,0,0,1.614A.807.807,0,0,0,342.617,497Z" transform="translate(-305.058 -443.526)" fill="#000"/>
  <path id="Path_12526" data-name="Path 12526" d="M389.158,467.876a.807.807,0,0,0,0,1.614A.807.807,0,0,0,389.158,467.876Z" transform="translate(-346.591 -417.536)" fill="#000"/>
  <path id="Path_12527" data-name="Path 12527" d="M435.7,497a.807.807,0,0,0,0,1.614A.807.807,0,0,0,435.7,497Z" transform="translate(-388.124 -443.526)" fill="#000"/>
  <path id="Path_12528" data-name="Path 12528" d="M482.239,467.876a.807.807,0,0,0,0,1.614A.807.807,0,0,0,482.239,467.876Z" transform="translate(-429.657 -417.536)" fill="#000"/>
</svg>
