<svg xmlns="http://www.w3.org/2000/svg" width="20.558" height="20.558" viewBox="0 0 20.558 20.558">
  <g id="phone-call_2_" data-name="phone-call (2)" transform="translate(0)">
    <g id="Group_2452" data-name="Group 2452" transform="translate(0 0)">
      <path id="Path_13472" data-name="Path 13472" d="M17.546,3.009a10.279,10.279,0,1,0,3.012,7.267A10.279,10.279,0,0,0,17.546,3.009ZM15.567,14.318h0v0l-.521.517a2.741,2.741,0,0,1-2.587.74,9.108,9.108,0,0,1-2.645-1.185,12.221,12.221,0,0,1-2.087-1.682,12.315,12.315,0,0,1-1.559-1.891A9.593,9.593,0,0,1,5,8.443a2.741,2.741,0,0,1,.685-2.8l.61-.61a.435.435,0,0,1,.615,0h0L8.833,6.96a.435.435,0,0,1,0,.615h0L7.7,8.707a.922.922,0,0,0-.1,1.2,13.223,13.223,0,0,0,1.353,1.58,13.142,13.142,0,0,0,1.782,1.5.929.929,0,0,0,1.185-.1l1.093-1.11a.435.435,0,0,1,.615,0h0L15.565,13.7A.435.435,0,0,1,15.567,14.318Z" transform="translate(0 0)"/>
    </g>
  </g>
</svg>
