<svg xmlns="http://www.w3.org/2000/svg" width="59.7" height="55.8" viewBox="0 0 59.7 55.8">
  <g id="internet" transform="translate(-2.4 -3)">
    <path id="Path_4375" data-name="Path 4375" d="M52,42V40h8a.961.961,0,0,0,.9-.6.913.913,0,0,0-.2-1.1l-3.3-3.9h1.1a.961.961,0,0,0,.9-.6.913.913,0,0,0-.2-1.1L55.1,28h1.1a.961.961,0,0,0,.9-.6.913.913,0,0,0-.2-1.1l-5.3-6.1a1.088,1.088,0,0,0-1.5,0L45,26.5a1.09,1.09,0,0,0-.2,1.1.875.875,0,0,0,.9.6h1.1l-4.1,4.7a1.09,1.09,0,0,0-.2,1.1.875.875,0,0,0,.9.6h1.1l-3.3,3.9a1.09,1.09,0,0,0-.2,1.1c.1.4.6.4,1,.4h8v2.1a77.438,77.438,0,0,0-16.1,3.2l-4-4a5.776,5.776,0,0,0-3-1.3l2-4.4,1.6,2.2.1.1a4.014,4.014,0,0,0,2.9,1H37a3.122,3.122,0,0,0,2.2-.9,2.792,2.792,0,0,0,.8-2,2.946,2.946,0,0,0-3-3.1H34.5L31,28.3a6.307,6.307,0,1,0-7.5-6.2,6.042,6.042,0,0,0,.5,2.4H17.4a6.281,6.281,0,0,0-1.9.5A5.649,5.649,0,0,0,14,26.1L9.7,31a3.212,3.212,0,0,0-1,2.2A3,3,0,0,0,14.1,35l3.7-4.4h1.9l-4.4,8.5a5.932,5.932,0,0,0-.5,2.3c0,2.8,2.6,5.2,5.8,5.2h.8l-3.9,3.9A4.3,4.3,0,0,1,15,52H9.1C9,52,8,51.9,8,50.5c0-1.3.7-1.5,1-1.5h6a.908.908,0,0,0,.7-.3l1-1-1.4-1.4-.7.7H9a3.2,3.2,0,0,0-3,3.5A3.269,3.269,0,0,0,9,54h6.1a6.343,6.343,0,0,0,3.8-2l5.3-5.3h1.6l1.3,1.4a51.187,51.187,0,0,0-13.8,9.2l1.4,1.5a50.209,50.209,0,0,1,13.9-9.2l3.2,3.3a3.819,3.819,0,0,0,2.5,1,3.468,3.468,0,0,0,3.2-4.4,4.958,4.958,0,0,0-.9-1.5l-1.1-1a75.986,75.986,0,0,1,26.4-3l.2-2A70.414,70.414,0,0,0,52,42Zm-4.5-7.9a1.09,1.09,0,0,0,.2-1.1.875.875,0,0,0-.9-.6H45.7l4.1-4.7a1.09,1.09,0,0,0,.2-1.1.875.875,0,0,0-.9-.6H48l3.1-3.6L54.2,26H53a.961.961,0,0,0-.9.6.913.913,0,0,0,.2,1.1l4.1,4.7H55.3a.961.961,0,0,0-.9.6.913.913,0,0,0,.2,1.1L57.9,38H44.2ZM34,35h3c.5,0,1,.2,1,1.1,0,.7-.5.9-1,.9H33.6a2.275,2.275,0,0,1-1.5-.4l-2.2-3,.8-1.8c0-.1,0-.1.1-.2l2.4,3.1a1.135,1.135,0,0,0,.8.3ZM29.7,18a4.3,4.3,0,1,1-4.3,4.3A4.268,4.268,0,0,1,29.7,18Zm5.4,33.4a1.3,1.3,0,0,1-2,0L26.9,45a.908.908,0,0,0-.7-.3H20.6c-1.8,0-3.8-1.3-3.8-3.2a3.194,3.194,0,0,1,.3-1.4L22,30.7h2.6v-2H17.4a.909.909,0,0,0-.8.4l-4,4.8a.909.909,0,0,1-.8.4,1,1,0,0,1-1-1,.909.909,0,0,1,.4-.8l4.3-4.7a3.114,3.114,0,0,1,.9-.7c.5-.2,1.1-.3,1-.3h7.8a7.635,7.635,0,0,0,2.3,1.5v.1a1.916,1.916,0,0,1,1.4,1.2,1.946,1.946,0,0,1,0,1.5l-4.2,9H21.4v2h4.4a4.223,4.223,0,0,1,2.7.8l6.7,6.7a1.7,1.7,0,0,1,.4.7,1.187,1.187,0,0,1-.5,1.1Z" fill="#fff"/>
    <path id="Path_4376" data-name="Path 4376" d="M27.3,12.7a1.23,1.23,0,0,0,1.3.1L32,10.3l11.4,9.5,1.3-1.5-12-10a.91.91,0,0,0-1.2,0l-3.3,2.5L19.8,3.3a.972.972,0,0,0-1.4.1l-16,17,1.5,1.4L19.1,5.4Z" fill="#fff"/>
    <path id="Path_4377" data-name="Path 4377" d="M50.5,14A5.549,5.549,0,0,0,56,8.5a5.5,5.5,0,0,0-11,0A5.549,5.549,0,0,0,50.5,14Zm0-9A3.543,3.543,0,0,1,54,8.5a3.5,3.5,0,0,1-7,0A3.543,3.543,0,0,1,50.5,5Z" fill="#fff"/>
  </g>
</svg>
