<svg xmlns="http://www.w3.org/2000/svg" width="32.615" height="48.739" viewBox="0 0 32.615 48.739">
  <path id="walk" d="M31.687,48.739a3.636,3.636,0,0,1-3.631-3.632V35.834a.477.477,0,0,0-.152-.348l-2.764-2.573-1.717,3.648a2.121,2.121,0,0,1-.217.362l-6.451,8.631A3.659,3.659,0,0,1,14.336,47.2a3.706,3.706,0,0,1-3.83-5.633l5.954-8.5a.463.463,0,0,0,.067-.143l3.9-13.8a.468.468,0,0,0-.107-.451.516.516,0,0,0-.089-.076l-2.818,6.319a3.2,3.2,0,1,1-5.864-2.553l3.725-8.295a3.353,3.353,0,0,1,1.37-1.414.933.933,0,0,1,.1-.047l7.7-2.9a2.088,2.088,0,0,1,1.59.044l4.768,2.113a2.105,2.105,0,0,1,1.005.938l1.351,2.553a.485.485,0,0,0,.2.2l7.379,3.882a3.33,3.33,0,0,1-3.088,5.9s-4.563-2.429-6.934-3.7a.475.475,0,0,0-.679.286l-.914,3.122a.477.477,0,0,0,.072.413l5.634,7.717a2.461,2.461,0,0,1,.476,1.459V45.108a3.636,3.636,0,0,1-3.632,3.632ZM24.88,30.748a.811.811,0,0,1,.553.217L29.011,34.3a2.108,2.108,0,0,1,.669,1.537v9.273a2.007,2.007,0,0,0,4.014,0V34.639a.848.848,0,0,0-.164-.5L27.9,26.422a2.112,2.112,0,0,1-.319-1.829l.914-3.122a2.1,2.1,0,0,1,3-1.262c2.37,1.267,6.927,3.692,6.927,3.692A1.705,1.705,0,0,0,40,20.876l0,0L32.614,16.99a2.1,2.1,0,0,1-.878-.875l-1.352-2.554a.472.472,0,0,0-.227-.212L25.39,11.238a.473.473,0,0,0-.359-.01l-7.646,2.88a1.7,1.7,0,0,0-.645.676l-3.7,8.241a1.573,1.573,0,0,0,2.89,1.243L18.992,17.4a.813.813,0,0,1,.591-.467A2.1,2.1,0,0,1,22,19.569l-3.9,13.8a2.092,2.092,0,0,1-.3.631l-5.936,8.474a2.083,2.083,0,1,0,3.554,2.171L21.9,35.952a.463.463,0,0,0,.049-.082l2.192-4.655a.81.81,0,0,1,.581-.451.779.779,0,0,1,.154-.015ZM30.3,9.881a4.941,4.941,0,1,1,4.941-4.941A4.941,4.941,0,0,1,30.3,9.881Zm0-8.257A3.316,3.316,0,1,0,33.612,4.94,3.316,3.316,0,0,0,30.3,1.625Z" transform="translate(-9.924)"/>
</svg>
